<mxfile host="Electron" modified="2023-11-07T15:04:48.198Z" agent="Mozilla/5.0 (Windows NT 10.0; Win64; x64) AppleWebKit/537.36 (KHTML, like Gecko) draw.io/22.0.2 Chrome/114.0.5735.289 Electron/25.8.4 Safari/537.36" etag="DVofD1EsSOiaG55A0Npb" version="22.0.2" type="device">
  <diagram name="第 1 页" id="1sqylNfAPq1fsE0oIXYD">
    <mxGraphModel dx="2600" dy="2344" grid="1" gridSize="10" guides="1" tooltips="1" connect="1" arrows="1" fold="1" page="1" pageScale="1" pageWidth="827" pageHeight="1169" math="0" shadow="0">
      <root>
        <mxCell id="0" />
        <mxCell id="1" parent="0" />
        <mxCell id="I6aaFoLGxXdzeBipke8z-75" value="" style="group" parent="1" vertex="1" connectable="0">
          <mxGeometry x="90" y="-60" width="430" height="300" as="geometry" />
        </mxCell>
        <mxCell id="I6aaFoLGxXdzeBipke8z-41" value="hit" style="verticalLabelPosition=bottom;shadow=0;dashed=0;align=center;html=1;verticalAlign=top;shape=mxgraph.electrical.logic_gates.d_type_flip-flop;" parent="I6aaFoLGxXdzeBipke8z-75" vertex="1">
          <mxGeometry x="310" y="100" width="100" height="80" as="geometry" />
        </mxCell>
        <mxCell id="I6aaFoLGxXdzeBipke8z-42" style="edgeStyle=orthogonalEdgeStyle;rounded=0;orthogonalLoop=1;jettySize=auto;html=1;exitX=0.5;exitY=1;exitDx=0;exitDy=0;endArrow=none;endFill=0;" parent="I6aaFoLGxXdzeBipke8z-75" source="I6aaFoLGxXdzeBipke8z-43" edge="1">
          <mxGeometry relative="1" as="geometry">
            <mxPoint x="230" y="200" as="targetPoint" />
          </mxGeometry>
        </mxCell>
        <mxCell id="I6aaFoLGxXdzeBipke8z-43" value="Mux" style="whiteSpace=wrap;html=1;aspect=fixed;" parent="I6aaFoLGxXdzeBipke8z-75" vertex="1">
          <mxGeometry x="190" y="80" width="80" height="80" as="geometry" />
        </mxCell>
        <mxCell id="I6aaFoLGxXdzeBipke8z-44" style="edgeStyle=orthogonalEdgeStyle;shape=connector;rounded=0;orthogonalLoop=1;jettySize=auto;html=1;exitX=1;exitY=0.5;exitDx=0;exitDy=0;entryX=0;entryY=0.75;entryDx=0;entryDy=0;labelBackgroundColor=default;strokeColor=default;align=center;verticalAlign=middle;fontFamily=Helvetica;fontSize=11;fontColor=default;endArrow=none;endFill=0;" parent="I6aaFoLGxXdzeBipke8z-75" source="I6aaFoLGxXdzeBipke8z-47" target="I6aaFoLGxXdzeBipke8z-43" edge="1">
          <mxGeometry relative="1" as="geometry" />
        </mxCell>
        <mxCell id="I6aaFoLGxXdzeBipke8z-45" style="edgeStyle=orthogonalEdgeStyle;shape=connector;rounded=0;orthogonalLoop=1;jettySize=auto;html=1;exitX=0;exitY=0.25;exitDx=0;exitDy=0;labelBackgroundColor=default;strokeColor=default;align=center;verticalAlign=middle;fontFamily=Helvetica;fontSize=11;fontColor=default;endArrow=none;endFill=0;" parent="I6aaFoLGxXdzeBipke8z-75" source="I6aaFoLGxXdzeBipke8z-47" edge="1">
          <mxGeometry relative="1" as="geometry">
            <mxPoint x="30" y="179.9310344827586" as="targetPoint" />
          </mxGeometry>
        </mxCell>
        <mxCell id="I6aaFoLGxXdzeBipke8z-46" style="edgeStyle=orthogonalEdgeStyle;shape=connector;rounded=0;orthogonalLoop=1;jettySize=auto;html=1;exitX=0;exitY=0.75;exitDx=0;exitDy=0;labelBackgroundColor=default;strokeColor=default;align=center;verticalAlign=middle;fontFamily=Helvetica;fontSize=11;fontColor=default;endArrow=none;endFill=0;" parent="I6aaFoLGxXdzeBipke8z-75" source="I6aaFoLGxXdzeBipke8z-47" edge="1">
          <mxGeometry relative="1" as="geometry">
            <mxPoint x="30" y="219.9310344827586" as="targetPoint" />
          </mxGeometry>
        </mxCell>
        <mxCell id="I6aaFoLGxXdzeBipke8z-47" value="Mux" style="whiteSpace=wrap;html=1;aspect=fixed;" parent="I6aaFoLGxXdzeBipke8z-75" vertex="1">
          <mxGeometry x="70" y="160" width="80" height="80" as="geometry" />
        </mxCell>
        <mxCell id="I6aaFoLGxXdzeBipke8z-48" value="(isHit | 16&#39;b0) != 16&#39;b0" style="text;html=1;strokeColor=none;fillColor=none;align=center;verticalAlign=middle;whiteSpace=wrap;rounded=0;fontSize=11;fontFamily=Helvetica;fontColor=default;" parent="I6aaFoLGxXdzeBipke8z-75" vertex="1">
          <mxGeometry x="55" y="120" width="110" height="20" as="geometry" />
        </mxCell>
        <mxCell id="I6aaFoLGxXdzeBipke8z-49" style="edgeStyle=orthogonalEdgeStyle;shape=connector;rounded=0;orthogonalLoop=1;jettySize=auto;html=1;exitX=0.5;exitY=1;exitDx=0;exitDy=0;labelBackgroundColor=default;strokeColor=default;align=center;verticalAlign=middle;fontFamily=Helvetica;fontSize=11;fontColor=default;endArrow=none;endFill=0;" parent="I6aaFoLGxXdzeBipke8z-75" source="I6aaFoLGxXdzeBipke8z-53" edge="1">
          <mxGeometry relative="1" as="geometry">
            <mxPoint x="110" y="120" as="targetPoint" />
          </mxGeometry>
        </mxCell>
        <mxCell id="I6aaFoLGxXdzeBipke8z-50" style="edgeStyle=orthogonalEdgeStyle;shape=connector;rounded=0;orthogonalLoop=1;jettySize=auto;html=1;exitX=1;exitY=0.5;exitDx=0;exitDy=0;entryX=0;entryY=0.25;entryDx=0;entryDy=0;labelBackgroundColor=default;strokeColor=default;align=center;verticalAlign=middle;fontFamily=Helvetica;fontSize=11;fontColor=default;endArrow=none;endFill=0;" parent="I6aaFoLGxXdzeBipke8z-75" source="I6aaFoLGxXdzeBipke8z-53" target="I6aaFoLGxXdzeBipke8z-43" edge="1">
          <mxGeometry relative="1" as="geometry" />
        </mxCell>
        <mxCell id="I6aaFoLGxXdzeBipke8z-51" style="edgeStyle=orthogonalEdgeStyle;shape=connector;rounded=0;orthogonalLoop=1;jettySize=auto;html=1;exitX=0;exitY=0.25;exitDx=0;exitDy=0;labelBackgroundColor=default;strokeColor=default;align=center;verticalAlign=middle;fontFamily=Helvetica;fontSize=11;fontColor=default;endArrow=none;endFill=0;" parent="I6aaFoLGxXdzeBipke8z-75" source="I6aaFoLGxXdzeBipke8z-53" edge="1">
          <mxGeometry relative="1" as="geometry">
            <mxPoint x="30" y="19.931034482758605" as="targetPoint" />
          </mxGeometry>
        </mxCell>
        <mxCell id="I6aaFoLGxXdzeBipke8z-52" style="edgeStyle=orthogonalEdgeStyle;shape=connector;rounded=0;orthogonalLoop=1;jettySize=auto;html=1;exitX=0;exitY=0.75;exitDx=0;exitDy=0;labelBackgroundColor=default;strokeColor=default;align=center;verticalAlign=middle;fontFamily=Helvetica;fontSize=11;fontColor=default;endArrow=none;endFill=0;" parent="I6aaFoLGxXdzeBipke8z-75" source="I6aaFoLGxXdzeBipke8z-53" edge="1">
          <mxGeometry relative="1" as="geometry">
            <mxPoint x="30" y="59.931034482758605" as="targetPoint" />
          </mxGeometry>
        </mxCell>
        <mxCell id="I6aaFoLGxXdzeBipke8z-53" value="Mux" style="whiteSpace=wrap;html=1;aspect=fixed;" parent="I6aaFoLGxXdzeBipke8z-75" vertex="1">
          <mxGeometry x="70" width="80" height="80" as="geometry" />
        </mxCell>
        <mxCell id="I6aaFoLGxXdzeBipke8z-54" value="ren" style="text;html=1;strokeColor=none;fillColor=none;align=center;verticalAlign=middle;whiteSpace=wrap;rounded=0;fontSize=11;fontFamily=Helvetica;fontColor=default;" parent="I6aaFoLGxXdzeBipke8z-75" vertex="1">
          <mxGeometry x="220" y="200" width="20" height="20" as="geometry" />
        </mxCell>
        <mxCell id="I6aaFoLGxXdzeBipke8z-55" value="wen" style="text;html=1;strokeColor=none;fillColor=none;align=center;verticalAlign=middle;whiteSpace=wrap;rounded=0;fontSize=11;fontFamily=Helvetica;fontColor=default;" parent="I6aaFoLGxXdzeBipke8z-75" vertex="1">
          <mxGeometry x="100" y="280" width="20" height="20" as="geometry" />
        </mxCell>
        <mxCell id="I6aaFoLGxXdzeBipke8z-56" style="edgeStyle=orthogonalEdgeStyle;shape=connector;rounded=0;orthogonalLoop=1;jettySize=auto;html=1;exitX=0.5;exitY=1;exitDx=0;exitDy=0;entryX=0.5;entryY=0;entryDx=0;entryDy=0;labelBackgroundColor=default;strokeColor=default;align=center;verticalAlign=middle;fontFamily=Helvetica;fontSize=11;fontColor=default;endArrow=none;endFill=0;" parent="I6aaFoLGxXdzeBipke8z-75" source="I6aaFoLGxXdzeBipke8z-47" target="I6aaFoLGxXdzeBipke8z-55" edge="1">
          <mxGeometry relative="1" as="geometry" />
        </mxCell>
        <mxCell id="I6aaFoLGxXdzeBipke8z-57" style="edgeStyle=orthogonalEdgeStyle;shape=connector;rounded=0;orthogonalLoop=1;jettySize=auto;html=1;exitX=1;exitY=0.5;exitDx=0;exitDy=0;entryX=0;entryY=0.25;entryDx=0;entryDy=0;entryPerimeter=0;labelBackgroundColor=default;strokeColor=default;align=center;verticalAlign=middle;fontFamily=Helvetica;fontSize=11;fontColor=default;endArrow=none;endFill=0;" parent="I6aaFoLGxXdzeBipke8z-75" source="I6aaFoLGxXdzeBipke8z-43" target="I6aaFoLGxXdzeBipke8z-41" edge="1">
          <mxGeometry relative="1" as="geometry" />
        </mxCell>
        <mxCell id="I6aaFoLGxXdzeBipke8z-58" value="1" style="text;html=1;strokeColor=none;fillColor=none;align=center;verticalAlign=middle;whiteSpace=wrap;rounded=0;fontSize=11;fontFamily=Helvetica;fontColor=default;" parent="I6aaFoLGxXdzeBipke8z-75" vertex="1">
          <mxGeometry x="70" y="10" width="20" height="20" as="geometry" />
        </mxCell>
        <mxCell id="I6aaFoLGxXdzeBipke8z-59" value="0" style="text;html=1;strokeColor=none;fillColor=none;align=center;verticalAlign=middle;whiteSpace=wrap;rounded=0;fontSize=11;fontFamily=Helvetica;fontColor=default;" parent="I6aaFoLGxXdzeBipke8z-75" vertex="1">
          <mxGeometry x="70" y="50" width="20" height="20" as="geometry" />
        </mxCell>
        <mxCell id="I6aaFoLGxXdzeBipke8z-60" value="sel" style="text;html=1;strokeColor=none;fillColor=none;align=center;verticalAlign=middle;whiteSpace=wrap;rounded=0;fontSize=11;fontFamily=Helvetica;fontColor=default;" parent="I6aaFoLGxXdzeBipke8z-75" vertex="1">
          <mxGeometry x="100" y="60" width="20" height="20" as="geometry" />
        </mxCell>
        <mxCell id="I6aaFoLGxXdzeBipke8z-61" value="1" style="text;html=1;strokeColor=none;fillColor=none;align=center;verticalAlign=middle;whiteSpace=wrap;rounded=0;fontSize=11;fontFamily=Helvetica;fontColor=default;" parent="I6aaFoLGxXdzeBipke8z-75" vertex="1">
          <mxGeometry x="190" y="90" width="20" height="20" as="geometry" />
        </mxCell>
        <mxCell id="I6aaFoLGxXdzeBipke8z-62" value="0" style="text;html=1;strokeColor=none;fillColor=none;align=center;verticalAlign=middle;whiteSpace=wrap;rounded=0;fontSize=11;fontFamily=Helvetica;fontColor=default;" parent="I6aaFoLGxXdzeBipke8z-75" vertex="1">
          <mxGeometry x="190" y="130" width="20" height="20" as="geometry" />
        </mxCell>
        <mxCell id="I6aaFoLGxXdzeBipke8z-63" value="sel" style="text;html=1;strokeColor=none;fillColor=none;align=center;verticalAlign=middle;whiteSpace=wrap;rounded=0;fontSize=11;fontFamily=Helvetica;fontColor=default;" parent="I6aaFoLGxXdzeBipke8z-75" vertex="1">
          <mxGeometry x="220" y="140" width="20" height="20" as="geometry" />
        </mxCell>
        <mxCell id="I6aaFoLGxXdzeBipke8z-64" value="1" style="text;html=1;strokeColor=none;fillColor=none;align=center;verticalAlign=middle;whiteSpace=wrap;rounded=0;fontSize=11;fontFamily=Helvetica;fontColor=default;" parent="I6aaFoLGxXdzeBipke8z-75" vertex="1">
          <mxGeometry x="70" y="170" width="20" height="20" as="geometry" />
        </mxCell>
        <mxCell id="I6aaFoLGxXdzeBipke8z-65" value="0" style="text;html=1;strokeColor=none;fillColor=none;align=center;verticalAlign=middle;whiteSpace=wrap;rounded=0;fontSize=11;fontFamily=Helvetica;fontColor=default;" parent="I6aaFoLGxXdzeBipke8z-75" vertex="1">
          <mxGeometry x="70" y="210" width="20" height="20" as="geometry" />
        </mxCell>
        <mxCell id="I6aaFoLGxXdzeBipke8z-66" value="sel" style="text;html=1;strokeColor=none;fillColor=none;align=center;verticalAlign=middle;whiteSpace=wrap;rounded=0;fontSize=11;fontFamily=Helvetica;fontColor=default;" parent="I6aaFoLGxXdzeBipke8z-75" vertex="1">
          <mxGeometry x="100" y="220" width="20" height="20" as="geometry" />
        </mxCell>
        <mxCell id="I6aaFoLGxXdzeBipke8z-70" value="1&#39;b1" style="text;html=1;strokeColor=none;fillColor=none;align=center;verticalAlign=middle;whiteSpace=wrap;rounded=0;fontSize=11;fontFamily=Helvetica;fontColor=default;" parent="I6aaFoLGxXdzeBipke8z-75" vertex="1">
          <mxGeometry y="10" width="30" height="20" as="geometry" />
        </mxCell>
        <mxCell id="I6aaFoLGxXdzeBipke8z-71" value="hit" style="text;html=1;strokeColor=none;fillColor=none;align=center;verticalAlign=middle;whiteSpace=wrap;rounded=0;fontSize=11;fontFamily=Helvetica;fontColor=default;" parent="I6aaFoLGxXdzeBipke8z-75" vertex="1">
          <mxGeometry x="410" y="110" width="20" height="20" as="geometry" />
        </mxCell>
        <mxCell id="I6aaFoLGxXdzeBipke8z-72" value="1&#39;b0" style="text;html=1;strokeColor=none;fillColor=none;align=center;verticalAlign=middle;whiteSpace=wrap;rounded=0;fontSize=11;fontFamily=Helvetica;fontColor=default;" parent="I6aaFoLGxXdzeBipke8z-75" vertex="1">
          <mxGeometry y="50" width="30" height="20" as="geometry" />
        </mxCell>
        <mxCell id="I6aaFoLGxXdzeBipke8z-73" value="1&#39;b0" style="text;html=1;strokeColor=none;fillColor=none;align=center;verticalAlign=middle;whiteSpace=wrap;rounded=0;fontSize=11;fontFamily=Helvetica;fontColor=default;" parent="I6aaFoLGxXdzeBipke8z-75" vertex="1">
          <mxGeometry y="170" width="30" height="20" as="geometry" />
        </mxCell>
        <mxCell id="I6aaFoLGxXdzeBipke8z-74" value="1&#39;b0" style="text;html=1;strokeColor=none;fillColor=none;align=center;verticalAlign=middle;whiteSpace=wrap;rounded=0;fontSize=11;fontFamily=Helvetica;fontColor=default;" parent="I6aaFoLGxXdzeBipke8z-75" vertex="1">
          <mxGeometry y="210" width="30" height="20" as="geometry" />
        </mxCell>
        <mxCell id="I6aaFoLGxXdzeBipke8z-125" value="" style="group" parent="1" vertex="1" connectable="0">
          <mxGeometry x="60" y="760" width="500" height="300" as="geometry" />
        </mxCell>
        <mxCell id="I6aaFoLGxXdzeBipke8z-126" value="mem&lt;br&gt;(contain 16 8-bit array)" style="verticalLabelPosition=bottom;shadow=0;dashed=0;align=center;html=1;verticalAlign=top;shape=mxgraph.electrical.logic_gates.d_type_flip-flop;" parent="I6aaFoLGxXdzeBipke8z-125" vertex="1">
          <mxGeometry x="340" y="100" width="100" height="80" as="geometry" />
        </mxCell>
        <mxCell id="I6aaFoLGxXdzeBipke8z-127" style="edgeStyle=orthogonalEdgeStyle;rounded=0;orthogonalLoop=1;jettySize=auto;html=1;exitX=0.5;exitY=1;exitDx=0;exitDy=0;endArrow=none;endFill=0;" parent="I6aaFoLGxXdzeBipke8z-125" source="I6aaFoLGxXdzeBipke8z-128" edge="1">
          <mxGeometry relative="1" as="geometry">
            <mxPoint x="260" y="200" as="targetPoint" />
          </mxGeometry>
        </mxCell>
        <mxCell id="I6aaFoLGxXdzeBipke8z-128" value="Mux" style="whiteSpace=wrap;html=1;aspect=fixed;" parent="I6aaFoLGxXdzeBipke8z-125" vertex="1">
          <mxGeometry x="220" y="80" width="80" height="80" as="geometry" />
        </mxCell>
        <mxCell id="I6aaFoLGxXdzeBipke8z-129" style="edgeStyle=orthogonalEdgeStyle;shape=connector;rounded=0;orthogonalLoop=1;jettySize=auto;html=1;exitX=1;exitY=0.5;exitDx=0;exitDy=0;entryX=0;entryY=0.75;entryDx=0;entryDy=0;labelBackgroundColor=default;strokeColor=default;align=center;verticalAlign=middle;fontFamily=Helvetica;fontSize=11;fontColor=default;endArrow=none;endFill=0;" parent="I6aaFoLGxXdzeBipke8z-125" source="I6aaFoLGxXdzeBipke8z-132" target="I6aaFoLGxXdzeBipke8z-128" edge="1">
          <mxGeometry relative="1" as="geometry" />
        </mxCell>
        <mxCell id="I6aaFoLGxXdzeBipke8z-130" style="edgeStyle=orthogonalEdgeStyle;shape=connector;rounded=0;orthogonalLoop=1;jettySize=auto;html=1;exitX=0;exitY=0.25;exitDx=0;exitDy=0;labelBackgroundColor=default;strokeColor=default;align=center;verticalAlign=middle;fontFamily=Helvetica;fontSize=11;fontColor=default;endArrow=none;endFill=0;" parent="I6aaFoLGxXdzeBipke8z-125" source="I6aaFoLGxXdzeBipke8z-132" edge="1">
          <mxGeometry relative="1" as="geometry">
            <mxPoint x="60" y="179.9310344827586" as="targetPoint" />
          </mxGeometry>
        </mxCell>
        <mxCell id="I6aaFoLGxXdzeBipke8z-131" style="edgeStyle=orthogonalEdgeStyle;shape=connector;rounded=0;orthogonalLoop=1;jettySize=auto;html=1;exitX=0;exitY=0.75;exitDx=0;exitDy=0;labelBackgroundColor=default;strokeColor=default;align=center;verticalAlign=middle;fontFamily=Helvetica;fontSize=11;fontColor=default;endArrow=none;endFill=0;" parent="I6aaFoLGxXdzeBipke8z-125" source="I6aaFoLGxXdzeBipke8z-132" edge="1">
          <mxGeometry relative="1" as="geometry">
            <mxPoint x="60" y="219.9310344827586" as="targetPoint" />
          </mxGeometry>
        </mxCell>
        <mxCell id="I6aaFoLGxXdzeBipke8z-132" value="Mux" style="whiteSpace=wrap;html=1;aspect=fixed;" parent="I6aaFoLGxXdzeBipke8z-125" vertex="1">
          <mxGeometry x="100" y="160" width="80" height="80" as="geometry" />
        </mxCell>
        <mxCell id="I6aaFoLGxXdzeBipke8z-133" value="(isHit | 16&#39;b0) != 16&#39;b0" style="text;html=1;strokeColor=none;fillColor=none;align=center;verticalAlign=middle;whiteSpace=wrap;rounded=0;fontSize=11;fontFamily=Helvetica;fontColor=default;" parent="I6aaFoLGxXdzeBipke8z-125" vertex="1">
          <mxGeometry x="85" y="120" width="110" height="20" as="geometry" />
        </mxCell>
        <mxCell id="I6aaFoLGxXdzeBipke8z-134" style="edgeStyle=orthogonalEdgeStyle;shape=connector;rounded=0;orthogonalLoop=1;jettySize=auto;html=1;exitX=0.5;exitY=1;exitDx=0;exitDy=0;labelBackgroundColor=default;strokeColor=default;align=center;verticalAlign=middle;fontFamily=Helvetica;fontSize=11;fontColor=default;endArrow=none;endFill=0;" parent="I6aaFoLGxXdzeBipke8z-125" source="I6aaFoLGxXdzeBipke8z-138" edge="1">
          <mxGeometry relative="1" as="geometry">
            <mxPoint x="140" y="120" as="targetPoint" />
          </mxGeometry>
        </mxCell>
        <mxCell id="I6aaFoLGxXdzeBipke8z-135" style="edgeStyle=orthogonalEdgeStyle;shape=connector;rounded=0;orthogonalLoop=1;jettySize=auto;html=1;exitX=1;exitY=0.5;exitDx=0;exitDy=0;entryX=0;entryY=0.25;entryDx=0;entryDy=0;labelBackgroundColor=default;strokeColor=default;align=center;verticalAlign=middle;fontFamily=Helvetica;fontSize=11;fontColor=default;endArrow=none;endFill=0;" parent="I6aaFoLGxXdzeBipke8z-125" source="I6aaFoLGxXdzeBipke8z-138" target="I6aaFoLGxXdzeBipke8z-128" edge="1">
          <mxGeometry relative="1" as="geometry" />
        </mxCell>
        <mxCell id="I6aaFoLGxXdzeBipke8z-136" style="edgeStyle=orthogonalEdgeStyle;shape=connector;rounded=0;orthogonalLoop=1;jettySize=auto;html=1;exitX=0;exitY=0.25;exitDx=0;exitDy=0;labelBackgroundColor=default;strokeColor=default;align=center;verticalAlign=middle;fontFamily=Helvetica;fontSize=11;fontColor=default;endArrow=none;endFill=0;" parent="I6aaFoLGxXdzeBipke8z-125" source="I6aaFoLGxXdzeBipke8z-138" edge="1">
          <mxGeometry relative="1" as="geometry">
            <mxPoint x="60" y="19.931034482758605" as="targetPoint" />
          </mxGeometry>
        </mxCell>
        <mxCell id="I6aaFoLGxXdzeBipke8z-137" style="edgeStyle=orthogonalEdgeStyle;shape=connector;rounded=0;orthogonalLoop=1;jettySize=auto;html=1;exitX=0;exitY=0.75;exitDx=0;exitDy=0;labelBackgroundColor=default;strokeColor=default;align=center;verticalAlign=middle;fontFamily=Helvetica;fontSize=11;fontColor=default;endArrow=none;endFill=0;" parent="I6aaFoLGxXdzeBipke8z-125" source="I6aaFoLGxXdzeBipke8z-138" edge="1">
          <mxGeometry relative="1" as="geometry">
            <mxPoint x="60" y="59.931034482758605" as="targetPoint" />
          </mxGeometry>
        </mxCell>
        <mxCell id="I6aaFoLGxXdzeBipke8z-138" value="Mux" style="whiteSpace=wrap;html=1;aspect=fixed;" parent="I6aaFoLGxXdzeBipke8z-125" vertex="1">
          <mxGeometry x="100" width="80" height="80" as="geometry" />
        </mxCell>
        <mxCell id="I6aaFoLGxXdzeBipke8z-139" value="ren" style="text;html=1;strokeColor=none;fillColor=none;align=center;verticalAlign=middle;whiteSpace=wrap;rounded=0;fontSize=11;fontFamily=Helvetica;fontColor=default;" parent="I6aaFoLGxXdzeBipke8z-125" vertex="1">
          <mxGeometry x="250" y="200" width="20" height="20" as="geometry" />
        </mxCell>
        <mxCell id="I6aaFoLGxXdzeBipke8z-140" value="wen" style="text;html=1;strokeColor=none;fillColor=none;align=center;verticalAlign=middle;whiteSpace=wrap;rounded=0;fontSize=11;fontFamily=Helvetica;fontColor=default;" parent="I6aaFoLGxXdzeBipke8z-125" vertex="1">
          <mxGeometry x="130" y="280" width="20" height="20" as="geometry" />
        </mxCell>
        <mxCell id="I6aaFoLGxXdzeBipke8z-141" style="edgeStyle=orthogonalEdgeStyle;shape=connector;rounded=0;orthogonalLoop=1;jettySize=auto;html=1;exitX=0.5;exitY=1;exitDx=0;exitDy=0;entryX=0.5;entryY=0;entryDx=0;entryDy=0;labelBackgroundColor=default;strokeColor=default;align=center;verticalAlign=middle;fontFamily=Helvetica;fontSize=11;fontColor=default;endArrow=none;endFill=0;" parent="I6aaFoLGxXdzeBipke8z-125" source="I6aaFoLGxXdzeBipke8z-132" target="I6aaFoLGxXdzeBipke8z-140" edge="1">
          <mxGeometry relative="1" as="geometry" />
        </mxCell>
        <mxCell id="I6aaFoLGxXdzeBipke8z-142" style="edgeStyle=orthogonalEdgeStyle;shape=connector;rounded=0;orthogonalLoop=1;jettySize=auto;html=1;exitX=1;exitY=0.5;exitDx=0;exitDy=0;entryX=0;entryY=0.25;entryDx=0;entryDy=0;entryPerimeter=0;labelBackgroundColor=default;strokeColor=default;align=center;verticalAlign=middle;fontFamily=Helvetica;fontSize=11;fontColor=default;endArrow=none;endFill=0;" parent="I6aaFoLGxXdzeBipke8z-125" source="I6aaFoLGxXdzeBipke8z-128" target="I6aaFoLGxXdzeBipke8z-126" edge="1">
          <mxGeometry relative="1" as="geometry" />
        </mxCell>
        <mxCell id="I6aaFoLGxXdzeBipke8z-143" value="1" style="text;html=1;strokeColor=none;fillColor=none;align=center;verticalAlign=middle;whiteSpace=wrap;rounded=0;fontSize=11;fontFamily=Helvetica;fontColor=default;" parent="I6aaFoLGxXdzeBipke8z-125" vertex="1">
          <mxGeometry x="100" y="10" width="20" height="20" as="geometry" />
        </mxCell>
        <mxCell id="I6aaFoLGxXdzeBipke8z-144" value="0" style="text;html=1;strokeColor=none;fillColor=none;align=center;verticalAlign=middle;whiteSpace=wrap;rounded=0;fontSize=11;fontFamily=Helvetica;fontColor=default;" parent="I6aaFoLGxXdzeBipke8z-125" vertex="1">
          <mxGeometry x="100" y="50" width="20" height="20" as="geometry" />
        </mxCell>
        <mxCell id="I6aaFoLGxXdzeBipke8z-145" value="sel" style="text;html=1;strokeColor=none;fillColor=none;align=center;verticalAlign=middle;whiteSpace=wrap;rounded=0;fontSize=11;fontFamily=Helvetica;fontColor=default;" parent="I6aaFoLGxXdzeBipke8z-125" vertex="1">
          <mxGeometry x="130" y="60" width="20" height="20" as="geometry" />
        </mxCell>
        <mxCell id="I6aaFoLGxXdzeBipke8z-146" value="1" style="text;html=1;strokeColor=none;fillColor=none;align=center;verticalAlign=middle;whiteSpace=wrap;rounded=0;fontSize=11;fontFamily=Helvetica;fontColor=default;" parent="I6aaFoLGxXdzeBipke8z-125" vertex="1">
          <mxGeometry x="220" y="90" width="20" height="20" as="geometry" />
        </mxCell>
        <mxCell id="I6aaFoLGxXdzeBipke8z-147" value="0" style="text;html=1;strokeColor=none;fillColor=none;align=center;verticalAlign=middle;whiteSpace=wrap;rounded=0;fontSize=11;fontFamily=Helvetica;fontColor=default;" parent="I6aaFoLGxXdzeBipke8z-125" vertex="1">
          <mxGeometry x="220" y="130" width="20" height="20" as="geometry" />
        </mxCell>
        <mxCell id="I6aaFoLGxXdzeBipke8z-148" value="sel" style="text;html=1;strokeColor=none;fillColor=none;align=center;verticalAlign=middle;whiteSpace=wrap;rounded=0;fontSize=11;fontFamily=Helvetica;fontColor=default;" parent="I6aaFoLGxXdzeBipke8z-125" vertex="1">
          <mxGeometry x="250" y="140" width="20" height="20" as="geometry" />
        </mxCell>
        <mxCell id="I6aaFoLGxXdzeBipke8z-149" value="1" style="text;html=1;strokeColor=none;fillColor=none;align=center;verticalAlign=middle;whiteSpace=wrap;rounded=0;fontSize=11;fontFamily=Helvetica;fontColor=default;" parent="I6aaFoLGxXdzeBipke8z-125" vertex="1">
          <mxGeometry x="100" y="170" width="20" height="20" as="geometry" />
        </mxCell>
        <mxCell id="I6aaFoLGxXdzeBipke8z-150" value="0" style="text;html=1;strokeColor=none;fillColor=none;align=center;verticalAlign=middle;whiteSpace=wrap;rounded=0;fontSize=11;fontFamily=Helvetica;fontColor=default;" parent="I6aaFoLGxXdzeBipke8z-125" vertex="1">
          <mxGeometry x="100" y="210" width="20" height="20" as="geometry" />
        </mxCell>
        <mxCell id="I6aaFoLGxXdzeBipke8z-151" value="sel" style="text;html=1;strokeColor=none;fillColor=none;align=center;verticalAlign=middle;whiteSpace=wrap;rounded=0;fontSize=11;fontFamily=Helvetica;fontColor=default;" parent="I6aaFoLGxXdzeBipke8z-125" vertex="1">
          <mxGeometry x="130" y="220" width="20" height="20" as="geometry" />
        </mxCell>
        <mxCell id="I6aaFoLGxXdzeBipke8z-152" value="mem[addr]" style="text;html=1;strokeColor=none;fillColor=none;align=center;verticalAlign=middle;whiteSpace=wrap;rounded=0;fontSize=11;fontFamily=Helvetica;fontColor=default;" parent="I6aaFoLGxXdzeBipke8z-125" vertex="1">
          <mxGeometry y="210" width="60" height="20" as="geometry" />
        </mxCell>
        <mxCell id="I6aaFoLGxXdzeBipke8z-153" value="din" style="text;html=1;strokeColor=none;fillColor=none;align=center;verticalAlign=middle;whiteSpace=wrap;rounded=0;fontSize=11;fontFamily=Helvetica;fontColor=default;" parent="I6aaFoLGxXdzeBipke8z-125" vertex="1">
          <mxGeometry x="30" y="170" width="30" height="20" as="geometry" />
        </mxCell>
        <mxCell id="I6aaFoLGxXdzeBipke8z-154" value="mem[addr]" style="text;html=1;strokeColor=none;fillColor=none;align=center;verticalAlign=middle;whiteSpace=wrap;rounded=0;fontSize=11;fontFamily=Helvetica;fontColor=default;" parent="I6aaFoLGxXdzeBipke8z-125" vertex="1">
          <mxGeometry y="50" width="60" height="20" as="geometry" />
        </mxCell>
        <mxCell id="I6aaFoLGxXdzeBipke8z-155" value="mem[addr]" style="text;html=1;strokeColor=none;fillColor=none;align=center;verticalAlign=middle;whiteSpace=wrap;rounded=0;fontSize=11;fontFamily=Helvetica;fontColor=default;" parent="I6aaFoLGxXdzeBipke8z-125" vertex="1">
          <mxGeometry y="10" width="60" height="20" as="geometry" />
        </mxCell>
        <mxCell id="I6aaFoLGxXdzeBipke8z-156" value="mem[addr]" style="text;html=1;strokeColor=none;fillColor=none;align=center;verticalAlign=middle;whiteSpace=wrap;rounded=0;fontSize=11;fontFamily=Helvetica;fontColor=default;" parent="I6aaFoLGxXdzeBipke8z-125" vertex="1">
          <mxGeometry x="440" y="110" width="60" height="20" as="geometry" />
        </mxCell>
        <mxCell id="I6aaFoLGxXdzeBipke8z-157" value="" style="endArrow=none;html=1;rounded=0;labelBackgroundColor=default;strokeColor=default;align=center;verticalAlign=middle;fontFamily=Helvetica;fontSize=11;fontColor=default;shape=connector;" parent="I6aaFoLGxXdzeBipke8z-125" edge="1">
          <mxGeometry width="50" height="50" relative="1" as="geometry">
            <mxPoint x="80" y="25" as="sourcePoint" />
            <mxPoint x="90" y="15" as="targetPoint" />
          </mxGeometry>
        </mxCell>
        <mxCell id="I6aaFoLGxXdzeBipke8z-158" value="8" style="text;html=1;strokeColor=none;fillColor=none;align=center;verticalAlign=middle;whiteSpace=wrap;rounded=0;fontSize=11;fontFamily=Helvetica;fontColor=default;" parent="I6aaFoLGxXdzeBipke8z-125" vertex="1">
          <mxGeometry x="80" y="30" width="10" height="10" as="geometry" />
        </mxCell>
        <mxCell id="I6aaFoLGxXdzeBipke8z-159" value="" style="endArrow=none;html=1;rounded=0;labelBackgroundColor=default;strokeColor=default;align=center;verticalAlign=middle;fontFamily=Helvetica;fontSize=11;fontColor=default;shape=connector;" parent="I6aaFoLGxXdzeBipke8z-125" edge="1">
          <mxGeometry width="50" height="50" relative="1" as="geometry">
            <mxPoint x="80" y="65" as="sourcePoint" />
            <mxPoint x="90" y="55" as="targetPoint" />
          </mxGeometry>
        </mxCell>
        <mxCell id="I6aaFoLGxXdzeBipke8z-160" value="8" style="text;html=1;strokeColor=none;fillColor=none;align=center;verticalAlign=middle;whiteSpace=wrap;rounded=0;fontSize=11;fontFamily=Helvetica;fontColor=default;" parent="I6aaFoLGxXdzeBipke8z-125" vertex="1">
          <mxGeometry x="80" y="70" width="10" height="10" as="geometry" />
        </mxCell>
        <mxCell id="I6aaFoLGxXdzeBipke8z-161" value="" style="endArrow=none;html=1;rounded=0;labelBackgroundColor=default;strokeColor=default;align=center;verticalAlign=middle;fontFamily=Helvetica;fontSize=11;fontColor=default;shape=connector;" parent="I6aaFoLGxXdzeBipke8z-125" edge="1">
          <mxGeometry width="50" height="50" relative="1" as="geometry">
            <mxPoint x="80" y="185" as="sourcePoint" />
            <mxPoint x="90" y="175" as="targetPoint" />
          </mxGeometry>
        </mxCell>
        <mxCell id="I6aaFoLGxXdzeBipke8z-162" value="8" style="text;html=1;strokeColor=none;fillColor=none;align=center;verticalAlign=middle;whiteSpace=wrap;rounded=0;fontSize=11;fontFamily=Helvetica;fontColor=default;" parent="I6aaFoLGxXdzeBipke8z-125" vertex="1">
          <mxGeometry x="80" y="190" width="10" height="10" as="geometry" />
        </mxCell>
        <mxCell id="I6aaFoLGxXdzeBipke8z-163" value="" style="endArrow=none;html=1;rounded=0;labelBackgroundColor=default;strokeColor=default;align=center;verticalAlign=middle;fontFamily=Helvetica;fontSize=11;fontColor=default;shape=connector;" parent="I6aaFoLGxXdzeBipke8z-125" edge="1">
          <mxGeometry width="50" height="50" relative="1" as="geometry">
            <mxPoint x="425" y="125" as="sourcePoint" />
            <mxPoint x="435" y="115" as="targetPoint" />
          </mxGeometry>
        </mxCell>
        <mxCell id="I6aaFoLGxXdzeBipke8z-164" value="8" style="text;html=1;strokeColor=none;fillColor=none;align=center;verticalAlign=middle;whiteSpace=wrap;rounded=0;fontSize=11;fontFamily=Helvetica;fontColor=default;" parent="I6aaFoLGxXdzeBipke8z-125" vertex="1">
          <mxGeometry x="425" y="130" width="10" height="10" as="geometry" />
        </mxCell>
        <mxCell id="I6aaFoLGxXdzeBipke8z-165" value="" style="endArrow=none;html=1;rounded=0;labelBackgroundColor=default;strokeColor=default;align=center;verticalAlign=middle;fontFamily=Helvetica;fontSize=11;fontColor=default;shape=connector;" parent="I6aaFoLGxXdzeBipke8z-125" edge="1">
          <mxGeometry width="50" height="50" relative="1" as="geometry">
            <mxPoint x="325" y="125" as="sourcePoint" />
            <mxPoint x="335" y="115" as="targetPoint" />
          </mxGeometry>
        </mxCell>
        <mxCell id="I6aaFoLGxXdzeBipke8z-166" value="8" style="text;html=1;strokeColor=none;fillColor=none;align=center;verticalAlign=middle;whiteSpace=wrap;rounded=0;fontSize=11;fontFamily=Helvetica;fontColor=default;" parent="I6aaFoLGxXdzeBipke8z-125" vertex="1">
          <mxGeometry x="325" y="130" width="10" height="10" as="geometry" />
        </mxCell>
        <mxCell id="I6aaFoLGxXdzeBipke8z-167" value="" style="endArrow=none;html=1;rounded=0;labelBackgroundColor=default;strokeColor=default;align=center;verticalAlign=middle;fontFamily=Helvetica;fontSize=11;fontColor=default;shape=connector;" parent="I6aaFoLGxXdzeBipke8z-125" edge="1">
          <mxGeometry width="50" height="50" relative="1" as="geometry">
            <mxPoint x="80" y="225" as="sourcePoint" />
            <mxPoint x="90" y="215" as="targetPoint" />
          </mxGeometry>
        </mxCell>
        <mxCell id="I6aaFoLGxXdzeBipke8z-168" value="8" style="text;html=1;strokeColor=none;fillColor=none;align=center;verticalAlign=middle;whiteSpace=wrap;rounded=0;fontSize=11;fontFamily=Helvetica;fontColor=default;" parent="I6aaFoLGxXdzeBipke8z-125" vertex="1">
          <mxGeometry x="80" y="230" width="10" height="10" as="geometry" />
        </mxCell>
        <mxCell id="I6aaFoLGxXdzeBipke8z-169" value="" style="endArrow=none;html=1;rounded=0;labelBackgroundColor=default;strokeColor=default;align=center;verticalAlign=middle;fontFamily=Helvetica;fontSize=11;fontColor=default;shape=connector;" parent="I6aaFoLGxXdzeBipke8z-125" edge="1">
          <mxGeometry width="50" height="50" relative="1" as="geometry">
            <mxPoint x="185" y="45" as="sourcePoint" />
            <mxPoint x="195" y="35" as="targetPoint" />
          </mxGeometry>
        </mxCell>
        <mxCell id="I6aaFoLGxXdzeBipke8z-170" value="8" style="text;html=1;strokeColor=none;fillColor=none;align=center;verticalAlign=middle;whiteSpace=wrap;rounded=0;fontSize=11;fontFamily=Helvetica;fontColor=default;" parent="I6aaFoLGxXdzeBipke8z-125" vertex="1">
          <mxGeometry x="185" y="50" width="10" height="10" as="geometry" />
        </mxCell>
        <mxCell id="I6aaFoLGxXdzeBipke8z-171" value="" style="endArrow=none;html=1;rounded=0;labelBackgroundColor=default;strokeColor=default;align=center;verticalAlign=middle;fontFamily=Helvetica;fontSize=11;fontColor=default;shape=connector;" parent="I6aaFoLGxXdzeBipke8z-125" edge="1">
          <mxGeometry width="50" height="50" relative="1" as="geometry">
            <mxPoint x="185" y="205" as="sourcePoint" />
            <mxPoint x="195" y="195" as="targetPoint" />
          </mxGeometry>
        </mxCell>
        <mxCell id="I6aaFoLGxXdzeBipke8z-172" value="8" style="text;html=1;strokeColor=none;fillColor=none;align=center;verticalAlign=middle;whiteSpace=wrap;rounded=0;fontSize=11;fontFamily=Helvetica;fontColor=default;" parent="I6aaFoLGxXdzeBipke8z-125" vertex="1">
          <mxGeometry x="185" y="210" width="10" height="10" as="geometry" />
        </mxCell>
        <mxCell id="aZqe3vb6Hepgzw5Yev4Q-1" value="" style="group" vertex="1" connectable="0" parent="1">
          <mxGeometry x="-630" y="720" width="330" height="520" as="geometry" />
        </mxCell>
        <mxCell id="I6aaFoLGxXdzeBipke8z-260" style="edgeStyle=orthogonalEdgeStyle;shape=connector;rounded=0;orthogonalLoop=1;jettySize=auto;html=1;exitX=0;exitY=0.25;exitDx=0;exitDy=0;exitPerimeter=0;labelBackgroundColor=default;strokeColor=default;align=center;verticalAlign=middle;fontFamily=Helvetica;fontSize=11;fontColor=default;endArrow=none;endFill=0;" parent="aZqe3vb6Hepgzw5Yev4Q-1" source="I6aaFoLGxXdzeBipke8z-233" edge="1">
          <mxGeometry relative="1" as="geometry">
            <mxPoint x="190" y="219.85714285714266" as="targetPoint" />
          </mxGeometry>
        </mxCell>
        <mxCell id="I6aaFoLGxXdzeBipke8z-233" value="isHit[15:0]" style="verticalLabelPosition=bottom;shadow=0;dashed=0;align=center;html=1;verticalAlign=top;shape=mxgraph.electrical.logic_gates.d_type_flip-flop;fontFamily=Helvetica;fontSize=11;fontColor=default;" parent="aZqe3vb6Hepgzw5Yev4Q-1" vertex="1">
          <mxGeometry x="230" y="200" width="100" height="80" as="geometry" />
        </mxCell>
        <mxCell id="I6aaFoLGxXdzeBipke8z-266" style="edgeStyle=orthogonalEdgeStyle;shape=connector;rounded=0;orthogonalLoop=1;jettySize=auto;html=1;exitX=1;exitY=0.5;exitDx=0;exitDy=0;labelBackgroundColor=default;strokeColor=default;align=center;verticalAlign=middle;fontFamily=Helvetica;fontSize=11;fontColor=default;endArrow=none;endFill=0;" parent="aZqe3vb6Hepgzw5Yev4Q-1" source="I6aaFoLGxXdzeBipke8z-252" edge="1">
          <mxGeometry relative="1" as="geometry">
            <mxPoint x="190" y="40.19999999999982" as="targetPoint" />
          </mxGeometry>
        </mxCell>
        <mxCell id="I6aaFoLGxXdzeBipke8z-273" style="edgeStyle=orthogonalEdgeStyle;shape=connector;rounded=0;orthogonalLoop=1;jettySize=auto;html=1;exitX=0;exitY=0.25;exitDx=0;exitDy=0;labelBackgroundColor=default;strokeColor=default;align=center;verticalAlign=middle;fontFamily=Helvetica;fontSize=11;fontColor=default;endArrow=none;endFill=0;" parent="aZqe3vb6Hepgzw5Yev4Q-1" source="I6aaFoLGxXdzeBipke8z-252" edge="1">
          <mxGeometry relative="1" as="geometry">
            <mxPoint x="30" y="20" as="targetPoint" />
          </mxGeometry>
        </mxCell>
        <mxCell id="I6aaFoLGxXdzeBipke8z-274" style="edgeStyle=orthogonalEdgeStyle;shape=connector;rounded=0;orthogonalLoop=1;jettySize=auto;html=1;exitX=0;exitY=0.75;exitDx=0;exitDy=0;labelBackgroundColor=default;strokeColor=default;align=center;verticalAlign=middle;fontFamily=Helvetica;fontSize=11;fontColor=default;endArrow=none;endFill=0;" parent="aZqe3vb6Hepgzw5Yev4Q-1" source="I6aaFoLGxXdzeBipke8z-252" edge="1">
          <mxGeometry relative="1" as="geometry">
            <mxPoint x="30" y="60" as="targetPoint" />
          </mxGeometry>
        </mxCell>
        <mxCell id="I6aaFoLGxXdzeBipke8z-290" style="edgeStyle=orthogonalEdgeStyle;shape=connector;rounded=0;orthogonalLoop=1;jettySize=auto;html=1;exitX=0.5;exitY=1;exitDx=0;exitDy=0;labelBackgroundColor=default;strokeColor=default;align=center;verticalAlign=middle;fontFamily=Helvetica;fontSize=11;fontColor=default;endArrow=none;endFill=0;" parent="aZqe3vb6Hepgzw5Yev4Q-1" source="I6aaFoLGxXdzeBipke8z-252" edge="1">
          <mxGeometry relative="1" as="geometry">
            <mxPoint x="110" y="100" as="targetPoint" />
          </mxGeometry>
        </mxCell>
        <mxCell id="I6aaFoLGxXdzeBipke8z-252" value="Mux" style="whiteSpace=wrap;html=1;aspect=fixed;fontFamily=Helvetica;fontSize=11;fontColor=default;" parent="aZqe3vb6Hepgzw5Yev4Q-1" vertex="1">
          <mxGeometry x="70" width="80" height="80" as="geometry" />
        </mxCell>
        <mxCell id="I6aaFoLGxXdzeBipke8z-265" style="edgeStyle=orthogonalEdgeStyle;shape=connector;rounded=0;orthogonalLoop=1;jettySize=auto;html=1;exitX=1;exitY=0.5;exitDx=0;exitDy=0;labelBackgroundColor=default;strokeColor=default;align=center;verticalAlign=middle;fontFamily=Helvetica;fontSize=11;fontColor=default;endArrow=none;endFill=0;" parent="aZqe3vb6Hepgzw5Yev4Q-1" source="I6aaFoLGxXdzeBipke8z-253" edge="1">
          <mxGeometry relative="1" as="geometry">
            <mxPoint x="190" y="160.19999999999982" as="targetPoint" />
          </mxGeometry>
        </mxCell>
        <mxCell id="I6aaFoLGxXdzeBipke8z-275" style="edgeStyle=orthogonalEdgeStyle;shape=connector;rounded=0;orthogonalLoop=1;jettySize=auto;html=1;exitX=0;exitY=0.25;exitDx=0;exitDy=0;labelBackgroundColor=default;strokeColor=default;align=center;verticalAlign=middle;fontFamily=Helvetica;fontSize=11;fontColor=default;endArrow=none;endFill=0;" parent="aZqe3vb6Hepgzw5Yev4Q-1" source="I6aaFoLGxXdzeBipke8z-253" edge="1">
          <mxGeometry relative="1" as="geometry">
            <mxPoint x="30" y="140" as="targetPoint" />
          </mxGeometry>
        </mxCell>
        <mxCell id="I6aaFoLGxXdzeBipke8z-276" style="edgeStyle=orthogonalEdgeStyle;shape=connector;rounded=0;orthogonalLoop=1;jettySize=auto;html=1;exitX=0;exitY=0.75;exitDx=0;exitDy=0;labelBackgroundColor=default;strokeColor=default;align=center;verticalAlign=middle;fontFamily=Helvetica;fontSize=11;fontColor=default;endArrow=none;endFill=0;" parent="aZqe3vb6Hepgzw5Yev4Q-1" source="I6aaFoLGxXdzeBipke8z-253" edge="1">
          <mxGeometry relative="1" as="geometry">
            <mxPoint x="30" y="180" as="targetPoint" />
          </mxGeometry>
        </mxCell>
        <mxCell id="I6aaFoLGxXdzeBipke8z-292" style="edgeStyle=orthogonalEdgeStyle;shape=connector;rounded=0;orthogonalLoop=1;jettySize=auto;html=1;exitX=0.5;exitY=1;exitDx=0;exitDy=0;labelBackgroundColor=default;strokeColor=default;align=center;verticalAlign=middle;fontFamily=Helvetica;fontSize=11;fontColor=default;endArrow=none;endFill=0;" parent="aZqe3vb6Hepgzw5Yev4Q-1" source="I6aaFoLGxXdzeBipke8z-253" edge="1">
          <mxGeometry relative="1" as="geometry">
            <mxPoint x="110" y="220" as="targetPoint" />
          </mxGeometry>
        </mxCell>
        <mxCell id="I6aaFoLGxXdzeBipke8z-253" value="Mux" style="whiteSpace=wrap;html=1;aspect=fixed;fontFamily=Helvetica;fontSize=11;fontColor=default;" parent="aZqe3vb6Hepgzw5Yev4Q-1" vertex="1">
          <mxGeometry x="70" y="120" width="80" height="80" as="geometry" />
        </mxCell>
        <mxCell id="I6aaFoLGxXdzeBipke8z-264" style="edgeStyle=orthogonalEdgeStyle;shape=connector;rounded=0;orthogonalLoop=1;jettySize=auto;html=1;exitX=1;exitY=0.5;exitDx=0;exitDy=0;labelBackgroundColor=default;strokeColor=default;align=center;verticalAlign=middle;fontFamily=Helvetica;fontSize=11;fontColor=default;endArrow=none;endFill=0;" parent="aZqe3vb6Hepgzw5Yev4Q-1" source="I6aaFoLGxXdzeBipke8z-254" edge="1">
          <mxGeometry relative="1" as="geometry">
            <mxPoint x="190" y="440.1999999999998" as="targetPoint" />
          </mxGeometry>
        </mxCell>
        <mxCell id="I6aaFoLGxXdzeBipke8z-278" style="edgeStyle=orthogonalEdgeStyle;shape=connector;rounded=0;orthogonalLoop=1;jettySize=auto;html=1;exitX=0;exitY=0.25;exitDx=0;exitDy=0;labelBackgroundColor=default;strokeColor=default;align=center;verticalAlign=middle;fontFamily=Helvetica;fontSize=11;fontColor=default;endArrow=none;endFill=0;" parent="aZqe3vb6Hepgzw5Yev4Q-1" source="I6aaFoLGxXdzeBipke8z-254" edge="1">
          <mxGeometry relative="1" as="geometry">
            <mxPoint x="30" y="420" as="targetPoint" />
          </mxGeometry>
        </mxCell>
        <mxCell id="I6aaFoLGxXdzeBipke8z-279" style="edgeStyle=orthogonalEdgeStyle;shape=connector;rounded=0;orthogonalLoop=1;jettySize=auto;html=1;exitX=0;exitY=0.75;exitDx=0;exitDy=0;labelBackgroundColor=default;strokeColor=default;align=center;verticalAlign=middle;fontFamily=Helvetica;fontSize=11;fontColor=default;endArrow=none;endFill=0;" parent="aZqe3vb6Hepgzw5Yev4Q-1" source="I6aaFoLGxXdzeBipke8z-254" edge="1">
          <mxGeometry relative="1" as="geometry">
            <mxPoint x="30" y="460" as="targetPoint" />
          </mxGeometry>
        </mxCell>
        <mxCell id="I6aaFoLGxXdzeBipke8z-297" style="edgeStyle=orthogonalEdgeStyle;shape=connector;rounded=0;orthogonalLoop=1;jettySize=auto;html=1;exitX=0.5;exitY=1;exitDx=0;exitDy=0;labelBackgroundColor=default;strokeColor=default;align=center;verticalAlign=middle;fontFamily=Helvetica;fontSize=11;fontColor=default;endArrow=none;endFill=0;" parent="aZqe3vb6Hepgzw5Yev4Q-1" source="I6aaFoLGxXdzeBipke8z-254" edge="1">
          <mxGeometry relative="1" as="geometry">
            <mxPoint x="110.20000000000005" y="500" as="targetPoint" />
          </mxGeometry>
        </mxCell>
        <mxCell id="I6aaFoLGxXdzeBipke8z-254" value="Mux" style="whiteSpace=wrap;html=1;aspect=fixed;fontFamily=Helvetica;fontSize=11;fontColor=default;" parent="aZqe3vb6Hepgzw5Yev4Q-1" vertex="1">
          <mxGeometry x="70" y="400" width="80" height="80" as="geometry" />
        </mxCell>
        <mxCell id="I6aaFoLGxXdzeBipke8z-263" style="edgeStyle=orthogonalEdgeStyle;shape=connector;rounded=0;orthogonalLoop=1;jettySize=auto;html=1;exitX=1;exitY=0.5;exitDx=0;exitDy=0;labelBackgroundColor=default;strokeColor=default;align=center;verticalAlign=middle;fontFamily=Helvetica;fontSize=11;fontColor=default;endArrow=none;endFill=0;" parent="aZqe3vb6Hepgzw5Yev4Q-1" source="I6aaFoLGxXdzeBipke8z-255" edge="1">
          <mxGeometry relative="1" as="geometry">
            <mxPoint x="190" y="320.1999999999998" as="targetPoint" />
          </mxGeometry>
        </mxCell>
        <mxCell id="I6aaFoLGxXdzeBipke8z-277" style="edgeStyle=orthogonalEdgeStyle;shape=connector;rounded=0;orthogonalLoop=1;jettySize=auto;html=1;exitX=0;exitY=0.25;exitDx=0;exitDy=0;labelBackgroundColor=default;strokeColor=default;align=center;verticalAlign=middle;fontFamily=Helvetica;fontSize=11;fontColor=default;endArrow=none;endFill=0;" parent="aZqe3vb6Hepgzw5Yev4Q-1" source="I6aaFoLGxXdzeBipke8z-255" edge="1">
          <mxGeometry relative="1" as="geometry">
            <mxPoint x="30" y="300" as="targetPoint" />
          </mxGeometry>
        </mxCell>
        <mxCell id="I6aaFoLGxXdzeBipke8z-295" style="edgeStyle=orthogonalEdgeStyle;shape=connector;rounded=0;orthogonalLoop=1;jettySize=auto;html=1;exitX=0.5;exitY=1;exitDx=0;exitDy=0;labelBackgroundColor=default;strokeColor=default;align=center;verticalAlign=middle;fontFamily=Helvetica;fontSize=11;fontColor=default;endArrow=none;endFill=0;" parent="aZqe3vb6Hepgzw5Yev4Q-1" source="I6aaFoLGxXdzeBipke8z-255" edge="1">
          <mxGeometry relative="1" as="geometry">
            <mxPoint x="110.20000000000005" y="380" as="targetPoint" />
          </mxGeometry>
        </mxCell>
        <mxCell id="I6aaFoLGxXdzeBipke8z-255" value="Mux" style="whiteSpace=wrap;html=1;aspect=fixed;fontFamily=Helvetica;fontSize=11;fontColor=default;" parent="aZqe3vb6Hepgzw5Yev4Q-1" vertex="1">
          <mxGeometry x="70" y="280" width="80" height="80" as="geometry" />
        </mxCell>
        <mxCell id="I6aaFoLGxXdzeBipke8z-256" value="" style="verticalLabelPosition=bottom;shadow=0;dashed=0;align=center;html=1;verticalAlign=top;shape=mxgraph.electrical.logic_gates.inverting_contact;fontFamily=Helvetica;fontSize=11;fontColor=default;fillColor=#000000;" parent="aZqe3vb6Hepgzw5Yev4Q-1" vertex="1">
          <mxGeometry x="105" y="239" width="10" height="10" as="geometry" />
        </mxCell>
        <mxCell id="I6aaFoLGxXdzeBipke8z-257" value="" style="verticalLabelPosition=bottom;shadow=0;dashed=0;align=center;html=1;verticalAlign=top;shape=mxgraph.electrical.logic_gates.inverting_contact;fontFamily=Helvetica;fontSize=11;fontColor=default;fillColor=#000000;" parent="aZqe3vb6Hepgzw5Yev4Q-1" vertex="1">
          <mxGeometry x="105" y="252" width="10" height="10" as="geometry" />
        </mxCell>
        <mxCell id="I6aaFoLGxXdzeBipke8z-258" value="" style="verticalLabelPosition=bottom;shadow=0;dashed=0;align=center;html=1;verticalAlign=top;shape=mxgraph.electrical.logic_gates.inverting_contact;fontFamily=Helvetica;fontSize=11;fontColor=default;fillColor=#000000;" parent="aZqe3vb6Hepgzw5Yev4Q-1" vertex="1">
          <mxGeometry x="105" y="265" width="10" height="10" as="geometry" />
        </mxCell>
        <mxCell id="I6aaFoLGxXdzeBipke8z-259" value="" style="endArrow=none;html=1;rounded=0;labelBackgroundColor=default;strokeColor=default;align=center;verticalAlign=middle;fontFamily=Helvetica;fontSize=11;fontColor=default;shape=connector;" parent="aZqe3vb6Hepgzw5Yev4Q-1" edge="1">
          <mxGeometry width="50" height="50" relative="1" as="geometry">
            <mxPoint x="190" y="440" as="sourcePoint" />
            <mxPoint x="190" y="40" as="targetPoint" />
          </mxGeometry>
        </mxCell>
        <mxCell id="I6aaFoLGxXdzeBipke8z-261" value="" style="endArrow=none;html=1;rounded=0;labelBackgroundColor=default;strokeColor=default;align=center;verticalAlign=middle;fontFamily=Helvetica;fontSize=11;fontColor=default;shape=connector;" parent="aZqe3vb6Hepgzw5Yev4Q-1" edge="1">
          <mxGeometry width="50" height="50" relative="1" as="geometry">
            <mxPoint x="215" y="225" as="sourcePoint" />
            <mxPoint x="225" y="215" as="targetPoint" />
          </mxGeometry>
        </mxCell>
        <mxCell id="I6aaFoLGxXdzeBipke8z-262" value="16" style="text;html=1;strokeColor=none;fillColor=none;align=center;verticalAlign=middle;whiteSpace=wrap;rounded=0;fontSize=11;fontFamily=Helvetica;fontColor=default;" parent="aZqe3vb6Hepgzw5Yev4Q-1" vertex="1">
          <mxGeometry x="215" y="230" width="10" height="10" as="geometry" />
        </mxCell>
        <mxCell id="I6aaFoLGxXdzeBipke8z-267" value="isHit[15]" style="text;html=1;strokeColor=none;fillColor=none;align=center;verticalAlign=middle;whiteSpace=wrap;rounded=0;fontSize=11;fontFamily=Helvetica;fontColor=default;" parent="aZqe3vb6Hepgzw5Yev4Q-1" vertex="1">
          <mxGeometry x="190" y="30" width="50" height="20" as="geometry" />
        </mxCell>
        <mxCell id="I6aaFoLGxXdzeBipke8z-268" value="isHit[14]" style="text;html=1;strokeColor=none;fillColor=none;align=center;verticalAlign=middle;whiteSpace=wrap;rounded=0;fontSize=11;fontFamily=Helvetica;fontColor=default;" parent="aZqe3vb6Hepgzw5Yev4Q-1" vertex="1">
          <mxGeometry x="190" y="150" width="50" height="20" as="geometry" />
        </mxCell>
        <mxCell id="I6aaFoLGxXdzeBipke8z-269" value="isHit[1]" style="text;html=1;strokeColor=none;fillColor=none;align=center;verticalAlign=middle;whiteSpace=wrap;rounded=0;fontSize=11;fontFamily=Helvetica;fontColor=default;" parent="aZqe3vb6Hepgzw5Yev4Q-1" vertex="1">
          <mxGeometry x="190" y="310" width="50" height="20" as="geometry" />
        </mxCell>
        <mxCell id="I6aaFoLGxXdzeBipke8z-270" value="isHit[0]" style="text;html=1;strokeColor=none;fillColor=none;align=center;verticalAlign=middle;whiteSpace=wrap;rounded=0;fontSize=11;fontFamily=Helvetica;fontColor=default;" parent="aZqe3vb6Hepgzw5Yev4Q-1" vertex="1">
          <mxGeometry x="190" y="429" width="50" height="20" as="geometry" />
        </mxCell>
        <mxCell id="I6aaFoLGxXdzeBipke8z-271" value="" style="endArrow=none;html=1;rounded=0;labelBackgroundColor=default;strokeColor=default;align=center;verticalAlign=middle;fontFamily=Helvetica;fontSize=11;fontColor=default;shape=connector;" parent="aZqe3vb6Hepgzw5Yev4Q-1" edge="1">
          <mxGeometry width="50" height="50" relative="1" as="geometry">
            <mxPoint x="315" y="225" as="sourcePoint" />
            <mxPoint x="325" y="215" as="targetPoint" />
          </mxGeometry>
        </mxCell>
        <mxCell id="I6aaFoLGxXdzeBipke8z-272" value="16" style="text;html=1;strokeColor=none;fillColor=none;align=center;verticalAlign=middle;whiteSpace=wrap;rounded=0;fontSize=11;fontFamily=Helvetica;fontColor=default;" parent="aZqe3vb6Hepgzw5Yev4Q-1" vertex="1">
          <mxGeometry x="315" y="230" width="10" height="10" as="geometry" />
        </mxCell>
        <mxCell id="I6aaFoLGxXdzeBipke8z-280" value="1&#39;b0" style="text;html=1;strokeColor=none;fillColor=none;align=center;verticalAlign=middle;whiteSpace=wrap;rounded=0;fontSize=11;fontFamily=Helvetica;fontColor=default;" parent="aZqe3vb6Hepgzw5Yev4Q-1" vertex="1">
          <mxGeometry y="10" width="30" height="20" as="geometry" />
        </mxCell>
        <mxCell id="I6aaFoLGxXdzeBipke8z-281" value="1&#39;b1" style="text;html=1;strokeColor=none;fillColor=none;align=center;verticalAlign=middle;whiteSpace=wrap;rounded=0;fontSize=11;fontFamily=Helvetica;fontColor=default;" parent="aZqe3vb6Hepgzw5Yev4Q-1" vertex="1">
          <mxGeometry y="50" width="30" height="20" as="geometry" />
        </mxCell>
        <mxCell id="I6aaFoLGxXdzeBipke8z-282" value="1&#39;b0" style="text;html=1;strokeColor=none;fillColor=none;align=center;verticalAlign=middle;whiteSpace=wrap;rounded=0;fontSize=11;fontFamily=Helvetica;fontColor=default;" parent="aZqe3vb6Hepgzw5Yev4Q-1" vertex="1">
          <mxGeometry y="130" width="30" height="20" as="geometry" />
        </mxCell>
        <mxCell id="I6aaFoLGxXdzeBipke8z-283" value="1&#39;b1" style="text;html=1;strokeColor=none;fillColor=none;align=center;verticalAlign=middle;whiteSpace=wrap;rounded=0;fontSize=11;fontFamily=Helvetica;fontColor=default;" parent="aZqe3vb6Hepgzw5Yev4Q-1" vertex="1">
          <mxGeometry y="170" width="30" height="20" as="geometry" />
        </mxCell>
        <mxCell id="I6aaFoLGxXdzeBipke8z-285" value="1&#39;b0" style="text;html=1;strokeColor=none;fillColor=none;align=center;verticalAlign=middle;whiteSpace=wrap;rounded=0;fontSize=11;fontFamily=Helvetica;fontColor=default;" parent="aZqe3vb6Hepgzw5Yev4Q-1" vertex="1">
          <mxGeometry y="290" width="30" height="20" as="geometry" />
        </mxCell>
        <mxCell id="I6aaFoLGxXdzeBipke8z-286" value="1&#39;b1" style="text;html=1;strokeColor=none;fillColor=none;align=center;verticalAlign=middle;whiteSpace=wrap;rounded=0;fontSize=11;fontFamily=Helvetica;fontColor=default;" parent="aZqe3vb6Hepgzw5Yev4Q-1" vertex="1">
          <mxGeometry y="330" width="30" height="20" as="geometry" />
        </mxCell>
        <mxCell id="I6aaFoLGxXdzeBipke8z-287" style="edgeStyle=orthogonalEdgeStyle;shape=connector;rounded=0;orthogonalLoop=1;jettySize=auto;html=1;exitX=0;exitY=0.75;exitDx=0;exitDy=0;entryX=1;entryY=0.5;entryDx=0;entryDy=0;labelBackgroundColor=default;strokeColor=default;align=center;verticalAlign=middle;fontFamily=Helvetica;fontSize=11;fontColor=default;endArrow=none;endFill=0;" parent="aZqe3vb6Hepgzw5Yev4Q-1" source="I6aaFoLGxXdzeBipke8z-255" target="I6aaFoLGxXdzeBipke8z-286" edge="1">
          <mxGeometry relative="1" as="geometry" />
        </mxCell>
        <mxCell id="I6aaFoLGxXdzeBipke8z-288" value="1&#39;b0" style="text;html=1;strokeColor=none;fillColor=none;align=center;verticalAlign=middle;whiteSpace=wrap;rounded=0;fontSize=11;fontFamily=Helvetica;fontColor=default;" parent="aZqe3vb6Hepgzw5Yev4Q-1" vertex="1">
          <mxGeometry y="410" width="30" height="20" as="geometry" />
        </mxCell>
        <mxCell id="I6aaFoLGxXdzeBipke8z-289" value="1&#39;b1" style="text;html=1;strokeColor=none;fillColor=none;align=center;verticalAlign=middle;whiteSpace=wrap;rounded=0;fontSize=11;fontFamily=Helvetica;fontColor=default;" parent="aZqe3vb6Hepgzw5Yev4Q-1" vertex="1">
          <mxGeometry y="450" width="30" height="20" as="geometry" />
        </mxCell>
        <mxCell id="I6aaFoLGxXdzeBipke8z-293" value="mem[15] == din" style="text;html=1;strokeColor=none;fillColor=none;align=center;verticalAlign=middle;whiteSpace=wrap;rounded=0;fontSize=11;fontFamily=Helvetica;fontColor=default;" parent="aZqe3vb6Hepgzw5Yev4Q-1" vertex="1">
          <mxGeometry x="70" y="100" width="80" height="20" as="geometry" />
        </mxCell>
        <mxCell id="I6aaFoLGxXdzeBipke8z-294" value="mem[14] == din" style="text;html=1;strokeColor=none;fillColor=none;align=center;verticalAlign=middle;whiteSpace=wrap;rounded=0;fontSize=11;fontFamily=Helvetica;fontColor=default;" parent="aZqe3vb6Hepgzw5Yev4Q-1" vertex="1">
          <mxGeometry x="70" y="219" width="80" height="20" as="geometry" />
        </mxCell>
        <mxCell id="I6aaFoLGxXdzeBipke8z-296" value="mem[1] == din" style="text;html=1;strokeColor=none;fillColor=none;align=center;verticalAlign=middle;whiteSpace=wrap;rounded=0;fontSize=11;fontFamily=Helvetica;fontColor=default;" parent="aZqe3vb6Hepgzw5Yev4Q-1" vertex="1">
          <mxGeometry x="70" y="380" width="80" height="20" as="geometry" />
        </mxCell>
        <mxCell id="I6aaFoLGxXdzeBipke8z-298" value="mem[0] == din" style="text;html=1;strokeColor=none;fillColor=none;align=center;verticalAlign=middle;whiteSpace=wrap;rounded=0;fontSize=11;fontFamily=Helvetica;fontColor=default;" parent="aZqe3vb6Hepgzw5Yev4Q-1" vertex="1">
          <mxGeometry x="70" y="500" width="80" height="20" as="geometry" />
        </mxCell>
        <mxCell id="I6aaFoLGxXdzeBipke8z-299" value="1" style="text;html=1;strokeColor=none;fillColor=none;align=center;verticalAlign=middle;whiteSpace=wrap;rounded=0;fontSize=11;fontFamily=Helvetica;fontColor=default;" parent="aZqe3vb6Hepgzw5Yev4Q-1" vertex="1">
          <mxGeometry x="70" y="10" width="20" height="20" as="geometry" />
        </mxCell>
        <mxCell id="I6aaFoLGxXdzeBipke8z-300" value="0" style="text;html=1;strokeColor=none;fillColor=none;align=center;verticalAlign=middle;whiteSpace=wrap;rounded=0;fontSize=11;fontFamily=Helvetica;fontColor=default;" parent="aZqe3vb6Hepgzw5Yev4Q-1" vertex="1">
          <mxGeometry x="70" y="50" width="20" height="20" as="geometry" />
        </mxCell>
        <mxCell id="I6aaFoLGxXdzeBipke8z-301" value="sel" style="text;html=1;strokeColor=none;fillColor=none;align=center;verticalAlign=middle;whiteSpace=wrap;rounded=0;fontSize=11;fontFamily=Helvetica;fontColor=default;" parent="aZqe3vb6Hepgzw5Yev4Q-1" vertex="1">
          <mxGeometry x="100" y="60" width="20" height="20" as="geometry" />
        </mxCell>
        <mxCell id="I6aaFoLGxXdzeBipke8z-302" value="1" style="text;html=1;strokeColor=none;fillColor=none;align=center;verticalAlign=middle;whiteSpace=wrap;rounded=0;fontSize=11;fontFamily=Helvetica;fontColor=default;" parent="aZqe3vb6Hepgzw5Yev4Q-1" vertex="1">
          <mxGeometry x="70" y="130" width="20" height="20" as="geometry" />
        </mxCell>
        <mxCell id="I6aaFoLGxXdzeBipke8z-303" value="0" style="text;html=1;strokeColor=none;fillColor=none;align=center;verticalAlign=middle;whiteSpace=wrap;rounded=0;fontSize=11;fontFamily=Helvetica;fontColor=default;" parent="aZqe3vb6Hepgzw5Yev4Q-1" vertex="1">
          <mxGeometry x="70" y="170" width="20" height="20" as="geometry" />
        </mxCell>
        <mxCell id="I6aaFoLGxXdzeBipke8z-304" value="sel" style="text;html=1;strokeColor=none;fillColor=none;align=center;verticalAlign=middle;whiteSpace=wrap;rounded=0;fontSize=11;fontFamily=Helvetica;fontColor=default;" parent="aZqe3vb6Hepgzw5Yev4Q-1" vertex="1">
          <mxGeometry x="100" y="180" width="20" height="20" as="geometry" />
        </mxCell>
        <mxCell id="I6aaFoLGxXdzeBipke8z-305" value="1" style="text;html=1;strokeColor=none;fillColor=none;align=center;verticalAlign=middle;whiteSpace=wrap;rounded=0;fontSize=11;fontFamily=Helvetica;fontColor=default;" parent="aZqe3vb6Hepgzw5Yev4Q-1" vertex="1">
          <mxGeometry x="70" y="290" width="20" height="20" as="geometry" />
        </mxCell>
        <mxCell id="I6aaFoLGxXdzeBipke8z-306" value="0" style="text;html=1;strokeColor=none;fillColor=none;align=center;verticalAlign=middle;whiteSpace=wrap;rounded=0;fontSize=11;fontFamily=Helvetica;fontColor=default;" parent="aZqe3vb6Hepgzw5Yev4Q-1" vertex="1">
          <mxGeometry x="70" y="330" width="20" height="20" as="geometry" />
        </mxCell>
        <mxCell id="I6aaFoLGxXdzeBipke8z-307" value="sel" style="text;html=1;strokeColor=none;fillColor=none;align=center;verticalAlign=middle;whiteSpace=wrap;rounded=0;fontSize=11;fontFamily=Helvetica;fontColor=default;" parent="aZqe3vb6Hepgzw5Yev4Q-1" vertex="1">
          <mxGeometry x="100" y="340" width="20" height="20" as="geometry" />
        </mxCell>
        <mxCell id="I6aaFoLGxXdzeBipke8z-308" value="1" style="text;html=1;strokeColor=none;fillColor=none;align=center;verticalAlign=middle;whiteSpace=wrap;rounded=0;fontSize=11;fontFamily=Helvetica;fontColor=default;" parent="aZqe3vb6Hepgzw5Yev4Q-1" vertex="1">
          <mxGeometry x="70" y="410" width="20" height="20" as="geometry" />
        </mxCell>
        <mxCell id="I6aaFoLGxXdzeBipke8z-309" value="0" style="text;html=1;strokeColor=none;fillColor=none;align=center;verticalAlign=middle;whiteSpace=wrap;rounded=0;fontSize=11;fontFamily=Helvetica;fontColor=default;" parent="aZqe3vb6Hepgzw5Yev4Q-1" vertex="1">
          <mxGeometry x="70" y="450" width="20" height="20" as="geometry" />
        </mxCell>
        <mxCell id="I6aaFoLGxXdzeBipke8z-310" value="sel" style="text;html=1;strokeColor=none;fillColor=none;align=center;verticalAlign=middle;whiteSpace=wrap;rounded=0;fontSize=11;fontFamily=Helvetica;fontColor=default;" parent="aZqe3vb6Hepgzw5Yev4Q-1" vertex="1">
          <mxGeometry x="100" y="460" width="20" height="20" as="geometry" />
        </mxCell>
        <mxCell id="aZqe3vb6Hepgzw5Yev4Q-2" value="" style="group" vertex="1" connectable="0" parent="1">
          <mxGeometry x="-550" y="320" width="1080" height="340" as="geometry" />
        </mxCell>
        <mxCell id="I6aaFoLGxXdzeBipke8z-1" value="dout" style="verticalLabelPosition=bottom;shadow=0;dashed=0;align=center;html=1;verticalAlign=top;shape=mxgraph.electrical.logic_gates.d_type_flip-flop;" parent="aZqe3vb6Hepgzw5Yev4Q-2" vertex="1">
          <mxGeometry x="950" y="100" width="100" height="80" as="geometry" />
        </mxCell>
        <mxCell id="I6aaFoLGxXdzeBipke8z-5" style="edgeStyle=orthogonalEdgeStyle;rounded=0;orthogonalLoop=1;jettySize=auto;html=1;exitX=0.5;exitY=1;exitDx=0;exitDy=0;endArrow=none;endFill=0;" parent="aZqe3vb6Hepgzw5Yev4Q-2" source="I6aaFoLGxXdzeBipke8z-3" edge="1">
          <mxGeometry relative="1" as="geometry">
            <mxPoint x="870" y="200" as="targetPoint" />
          </mxGeometry>
        </mxCell>
        <mxCell id="I6aaFoLGxXdzeBipke8z-3" value="Mux" style="whiteSpace=wrap;html=1;aspect=fixed;" parent="aZqe3vb6Hepgzw5Yev4Q-2" vertex="1">
          <mxGeometry x="830" y="80" width="80" height="80" as="geometry" />
        </mxCell>
        <mxCell id="I6aaFoLGxXdzeBipke8z-19" style="edgeStyle=orthogonalEdgeStyle;shape=connector;rounded=0;orthogonalLoop=1;jettySize=auto;html=1;exitX=1;exitY=0.5;exitDx=0;exitDy=0;entryX=0;entryY=0.75;entryDx=0;entryDy=0;labelBackgroundColor=default;strokeColor=default;align=center;verticalAlign=middle;fontFamily=Helvetica;fontSize=11;fontColor=default;endArrow=none;endFill=0;" parent="aZqe3vb6Hepgzw5Yev4Q-2" source="I6aaFoLGxXdzeBipke8z-4" target="I6aaFoLGxXdzeBipke8z-3" edge="1">
          <mxGeometry relative="1" as="geometry" />
        </mxCell>
        <mxCell id="I6aaFoLGxXdzeBipke8z-22" style="edgeStyle=orthogonalEdgeStyle;shape=connector;rounded=0;orthogonalLoop=1;jettySize=auto;html=1;exitX=0;exitY=0.25;exitDx=0;exitDy=0;labelBackgroundColor=default;strokeColor=default;align=center;verticalAlign=middle;fontFamily=Helvetica;fontSize=11;fontColor=default;endArrow=none;endFill=0;" parent="aZqe3vb6Hepgzw5Yev4Q-2" source="I6aaFoLGxXdzeBipke8z-4" edge="1">
          <mxGeometry relative="1" as="geometry">
            <mxPoint x="670" y="179.9310344827586" as="targetPoint" />
          </mxGeometry>
        </mxCell>
        <mxCell id="I6aaFoLGxXdzeBipke8z-23" style="edgeStyle=orthogonalEdgeStyle;shape=connector;rounded=0;orthogonalLoop=1;jettySize=auto;html=1;exitX=0;exitY=0.75;exitDx=0;exitDy=0;labelBackgroundColor=default;strokeColor=default;align=center;verticalAlign=middle;fontFamily=Helvetica;fontSize=11;fontColor=default;endArrow=none;endFill=0;" parent="aZqe3vb6Hepgzw5Yev4Q-2" source="I6aaFoLGxXdzeBipke8z-4" edge="1">
          <mxGeometry relative="1" as="geometry">
            <mxPoint x="670" y="219.9310344827586" as="targetPoint" />
          </mxGeometry>
        </mxCell>
        <mxCell id="I6aaFoLGxXdzeBipke8z-4" value="Mux" style="whiteSpace=wrap;html=1;aspect=fixed;" parent="aZqe3vb6Hepgzw5Yev4Q-2" vertex="1">
          <mxGeometry x="710" y="160" width="80" height="80" as="geometry" />
        </mxCell>
        <mxCell id="I6aaFoLGxXdzeBipke8z-6" value="(isHit | 16&#39;b0) != 16&#39;b0" style="text;html=1;strokeColor=none;fillColor=none;align=center;verticalAlign=middle;whiteSpace=wrap;rounded=0;fontSize=11;fontFamily=Helvetica;fontColor=default;" parent="aZqe3vb6Hepgzw5Yev4Q-2" vertex="1">
          <mxGeometry x="695" y="120" width="110" height="20" as="geometry" />
        </mxCell>
        <mxCell id="I6aaFoLGxXdzeBipke8z-9" style="edgeStyle=orthogonalEdgeStyle;shape=connector;rounded=0;orthogonalLoop=1;jettySize=auto;html=1;exitX=0.5;exitY=1;exitDx=0;exitDy=0;labelBackgroundColor=default;strokeColor=default;align=center;verticalAlign=middle;fontFamily=Helvetica;fontSize=11;fontColor=default;endArrow=none;endFill=0;" parent="aZqe3vb6Hepgzw5Yev4Q-2" source="I6aaFoLGxXdzeBipke8z-8" edge="1">
          <mxGeometry relative="1" as="geometry">
            <mxPoint x="750" y="120" as="targetPoint" />
          </mxGeometry>
        </mxCell>
        <mxCell id="I6aaFoLGxXdzeBipke8z-18" style="edgeStyle=orthogonalEdgeStyle;shape=connector;rounded=0;orthogonalLoop=1;jettySize=auto;html=1;exitX=1;exitY=0.5;exitDx=0;exitDy=0;entryX=0;entryY=0.25;entryDx=0;entryDy=0;labelBackgroundColor=default;strokeColor=default;align=center;verticalAlign=middle;fontFamily=Helvetica;fontSize=11;fontColor=default;endArrow=none;endFill=0;" parent="aZqe3vb6Hepgzw5Yev4Q-2" source="I6aaFoLGxXdzeBipke8z-8" target="I6aaFoLGxXdzeBipke8z-3" edge="1">
          <mxGeometry relative="1" as="geometry" />
        </mxCell>
        <mxCell id="I6aaFoLGxXdzeBipke8z-20" style="edgeStyle=orthogonalEdgeStyle;shape=connector;rounded=0;orthogonalLoop=1;jettySize=auto;html=1;exitX=0;exitY=0.25;exitDx=0;exitDy=0;labelBackgroundColor=default;strokeColor=default;align=center;verticalAlign=middle;fontFamily=Helvetica;fontSize=11;fontColor=default;endArrow=none;endFill=0;" parent="aZqe3vb6Hepgzw5Yev4Q-2" source="I6aaFoLGxXdzeBipke8z-8" edge="1">
          <mxGeometry relative="1" as="geometry">
            <mxPoint x="670" y="19.931034482758605" as="targetPoint" />
          </mxGeometry>
        </mxCell>
        <mxCell id="I6aaFoLGxXdzeBipke8z-21" style="edgeStyle=orthogonalEdgeStyle;shape=connector;rounded=0;orthogonalLoop=1;jettySize=auto;html=1;exitX=0;exitY=0.75;exitDx=0;exitDy=0;labelBackgroundColor=default;strokeColor=default;align=center;verticalAlign=middle;fontFamily=Helvetica;fontSize=11;fontColor=default;endArrow=none;endFill=0;" parent="aZqe3vb6Hepgzw5Yev4Q-2" source="I6aaFoLGxXdzeBipke8z-8" edge="1">
          <mxGeometry relative="1" as="geometry">
            <mxPoint x="670" y="59.931034482758605" as="targetPoint" />
          </mxGeometry>
        </mxCell>
        <mxCell id="I6aaFoLGxXdzeBipke8z-8" value="Mux" style="whiteSpace=wrap;html=1;aspect=fixed;" parent="aZqe3vb6Hepgzw5Yev4Q-2" vertex="1">
          <mxGeometry x="710" width="80" height="80" as="geometry" />
        </mxCell>
        <mxCell id="I6aaFoLGxXdzeBipke8z-10" value="ren" style="text;html=1;strokeColor=none;fillColor=none;align=center;verticalAlign=middle;whiteSpace=wrap;rounded=0;fontSize=11;fontFamily=Helvetica;fontColor=default;" parent="aZqe3vb6Hepgzw5Yev4Q-2" vertex="1">
          <mxGeometry x="860" y="200" width="20" height="20" as="geometry" />
        </mxCell>
        <mxCell id="I6aaFoLGxXdzeBipke8z-11" value="wen" style="text;html=1;strokeColor=none;fillColor=none;align=center;verticalAlign=middle;whiteSpace=wrap;rounded=0;fontSize=11;fontFamily=Helvetica;fontColor=default;" parent="aZqe3vb6Hepgzw5Yev4Q-2" vertex="1">
          <mxGeometry x="740" y="280" width="20" height="20" as="geometry" />
        </mxCell>
        <mxCell id="I6aaFoLGxXdzeBipke8z-12" style="edgeStyle=orthogonalEdgeStyle;shape=connector;rounded=0;orthogonalLoop=1;jettySize=auto;html=1;exitX=0.5;exitY=1;exitDx=0;exitDy=0;entryX=0.5;entryY=0;entryDx=0;entryDy=0;labelBackgroundColor=default;strokeColor=default;align=center;verticalAlign=middle;fontFamily=Helvetica;fontSize=11;fontColor=default;endArrow=none;endFill=0;" parent="aZqe3vb6Hepgzw5Yev4Q-2" source="I6aaFoLGxXdzeBipke8z-4" target="I6aaFoLGxXdzeBipke8z-11" edge="1">
          <mxGeometry relative="1" as="geometry" />
        </mxCell>
        <mxCell id="I6aaFoLGxXdzeBipke8z-14" style="edgeStyle=orthogonalEdgeStyle;shape=connector;rounded=0;orthogonalLoop=1;jettySize=auto;html=1;exitX=1;exitY=0.5;exitDx=0;exitDy=0;entryX=0;entryY=0.25;entryDx=0;entryDy=0;entryPerimeter=0;labelBackgroundColor=default;strokeColor=default;align=center;verticalAlign=middle;fontFamily=Helvetica;fontSize=11;fontColor=default;endArrow=none;endFill=0;" parent="aZqe3vb6Hepgzw5Yev4Q-2" source="I6aaFoLGxXdzeBipke8z-3" target="I6aaFoLGxXdzeBipke8z-1" edge="1">
          <mxGeometry relative="1" as="geometry" />
        </mxCell>
        <mxCell id="I6aaFoLGxXdzeBipke8z-25" value="1" style="text;html=1;strokeColor=none;fillColor=none;align=center;verticalAlign=middle;whiteSpace=wrap;rounded=0;fontSize=11;fontFamily=Helvetica;fontColor=default;" parent="aZqe3vb6Hepgzw5Yev4Q-2" vertex="1">
          <mxGeometry x="710" y="10" width="20" height="20" as="geometry" />
        </mxCell>
        <mxCell id="I6aaFoLGxXdzeBipke8z-26" value="0" style="text;html=1;strokeColor=none;fillColor=none;align=center;verticalAlign=middle;whiteSpace=wrap;rounded=0;fontSize=11;fontFamily=Helvetica;fontColor=default;" parent="aZqe3vb6Hepgzw5Yev4Q-2" vertex="1">
          <mxGeometry x="710" y="50" width="20" height="20" as="geometry" />
        </mxCell>
        <mxCell id="I6aaFoLGxXdzeBipke8z-27" value="sel" style="text;html=1;strokeColor=none;fillColor=none;align=center;verticalAlign=middle;whiteSpace=wrap;rounded=0;fontSize=11;fontFamily=Helvetica;fontColor=default;" parent="aZqe3vb6Hepgzw5Yev4Q-2" vertex="1">
          <mxGeometry x="740" y="60" width="20" height="20" as="geometry" />
        </mxCell>
        <mxCell id="I6aaFoLGxXdzeBipke8z-28" value="1" style="text;html=1;strokeColor=none;fillColor=none;align=center;verticalAlign=middle;whiteSpace=wrap;rounded=0;fontSize=11;fontFamily=Helvetica;fontColor=default;" parent="aZqe3vb6Hepgzw5Yev4Q-2" vertex="1">
          <mxGeometry x="830" y="90" width="20" height="20" as="geometry" />
        </mxCell>
        <mxCell id="I6aaFoLGxXdzeBipke8z-29" value="0" style="text;html=1;strokeColor=none;fillColor=none;align=center;verticalAlign=middle;whiteSpace=wrap;rounded=0;fontSize=11;fontFamily=Helvetica;fontColor=default;" parent="aZqe3vb6Hepgzw5Yev4Q-2" vertex="1">
          <mxGeometry x="830" y="130" width="20" height="20" as="geometry" />
        </mxCell>
        <mxCell id="I6aaFoLGxXdzeBipke8z-30" value="sel" style="text;html=1;strokeColor=none;fillColor=none;align=center;verticalAlign=middle;whiteSpace=wrap;rounded=0;fontSize=11;fontFamily=Helvetica;fontColor=default;" parent="aZqe3vb6Hepgzw5Yev4Q-2" vertex="1">
          <mxGeometry x="860" y="140" width="20" height="20" as="geometry" />
        </mxCell>
        <mxCell id="I6aaFoLGxXdzeBipke8z-31" value="1" style="text;html=1;strokeColor=none;fillColor=none;align=center;verticalAlign=middle;whiteSpace=wrap;rounded=0;fontSize=11;fontFamily=Helvetica;fontColor=default;" parent="aZqe3vb6Hepgzw5Yev4Q-2" vertex="1">
          <mxGeometry x="710" y="170" width="20" height="20" as="geometry" />
        </mxCell>
        <mxCell id="I6aaFoLGxXdzeBipke8z-32" value="0" style="text;html=1;strokeColor=none;fillColor=none;align=center;verticalAlign=middle;whiteSpace=wrap;rounded=0;fontSize=11;fontFamily=Helvetica;fontColor=default;" parent="aZqe3vb6Hepgzw5Yev4Q-2" vertex="1">
          <mxGeometry x="710" y="210" width="20" height="20" as="geometry" />
        </mxCell>
        <mxCell id="I6aaFoLGxXdzeBipke8z-33" value="sel" style="text;html=1;strokeColor=none;fillColor=none;align=center;verticalAlign=middle;whiteSpace=wrap;rounded=0;fontSize=11;fontFamily=Helvetica;fontColor=default;" parent="aZqe3vb6Hepgzw5Yev4Q-2" vertex="1">
          <mxGeometry x="740" y="220" width="20" height="20" as="geometry" />
        </mxCell>
        <mxCell id="I6aaFoLGxXdzeBipke8z-38" value="dout" style="text;html=1;strokeColor=none;fillColor=none;align=center;verticalAlign=middle;whiteSpace=wrap;rounded=0;fontSize=11;fontFamily=Helvetica;fontColor=default;" parent="aZqe3vb6Hepgzw5Yev4Q-2" vertex="1">
          <mxGeometry x="1050" y="110" width="30" height="20" as="geometry" />
        </mxCell>
        <mxCell id="I6aaFoLGxXdzeBipke8z-108" value="" style="endArrow=none;html=1;rounded=0;labelBackgroundColor=default;strokeColor=default;align=center;verticalAlign=middle;fontFamily=Helvetica;fontSize=11;fontColor=default;shape=connector;" parent="aZqe3vb6Hepgzw5Yev4Q-2" edge="1">
          <mxGeometry width="50" height="50" relative="1" as="geometry">
            <mxPoint x="690" y="25" as="sourcePoint" />
            <mxPoint x="700" y="15" as="targetPoint" />
          </mxGeometry>
        </mxCell>
        <mxCell id="I6aaFoLGxXdzeBipke8z-109" value="4" style="text;html=1;strokeColor=none;fillColor=none;align=center;verticalAlign=middle;whiteSpace=wrap;rounded=0;fontSize=11;fontFamily=Helvetica;fontColor=default;" parent="aZqe3vb6Hepgzw5Yev4Q-2" vertex="1">
          <mxGeometry x="690" y="30" width="10" height="10" as="geometry" />
        </mxCell>
        <mxCell id="I6aaFoLGxXdzeBipke8z-110" value="" style="endArrow=none;html=1;rounded=0;labelBackgroundColor=default;strokeColor=default;align=center;verticalAlign=middle;fontFamily=Helvetica;fontSize=11;fontColor=default;shape=connector;" parent="aZqe3vb6Hepgzw5Yev4Q-2" edge="1">
          <mxGeometry width="50" height="50" relative="1" as="geometry">
            <mxPoint x="690" y="65" as="sourcePoint" />
            <mxPoint x="700" y="55" as="targetPoint" />
          </mxGeometry>
        </mxCell>
        <mxCell id="I6aaFoLGxXdzeBipke8z-111" value="4" style="text;html=1;strokeColor=none;fillColor=none;align=center;verticalAlign=middle;whiteSpace=wrap;rounded=0;fontSize=11;fontFamily=Helvetica;fontColor=default;" parent="aZqe3vb6Hepgzw5Yev4Q-2" vertex="1">
          <mxGeometry x="690" y="70" width="10" height="10" as="geometry" />
        </mxCell>
        <mxCell id="I6aaFoLGxXdzeBipke8z-112" value="" style="endArrow=none;html=1;rounded=0;labelBackgroundColor=default;strokeColor=default;align=center;verticalAlign=middle;fontFamily=Helvetica;fontSize=11;fontColor=default;shape=connector;" parent="aZqe3vb6Hepgzw5Yev4Q-2" edge="1">
          <mxGeometry width="50" height="50" relative="1" as="geometry">
            <mxPoint x="690" y="185" as="sourcePoint" />
            <mxPoint x="700" y="175" as="targetPoint" />
          </mxGeometry>
        </mxCell>
        <mxCell id="I6aaFoLGxXdzeBipke8z-113" value="4" style="text;html=1;strokeColor=none;fillColor=none;align=center;verticalAlign=middle;whiteSpace=wrap;rounded=0;fontSize=11;fontFamily=Helvetica;fontColor=default;" parent="aZqe3vb6Hepgzw5Yev4Q-2" vertex="1">
          <mxGeometry x="690" y="190" width="10" height="10" as="geometry" />
        </mxCell>
        <mxCell id="I6aaFoLGxXdzeBipke8z-114" value="" style="endArrow=none;html=1;rounded=0;labelBackgroundColor=default;strokeColor=default;align=center;verticalAlign=middle;fontFamily=Helvetica;fontSize=11;fontColor=default;shape=connector;" parent="aZqe3vb6Hepgzw5Yev4Q-2" edge="1">
          <mxGeometry width="50" height="50" relative="1" as="geometry">
            <mxPoint x="1035" y="125" as="sourcePoint" />
            <mxPoint x="1045" y="115" as="targetPoint" />
          </mxGeometry>
        </mxCell>
        <mxCell id="I6aaFoLGxXdzeBipke8z-115" value="4" style="text;html=1;strokeColor=none;fillColor=none;align=center;verticalAlign=middle;whiteSpace=wrap;rounded=0;fontSize=11;fontFamily=Helvetica;fontColor=default;" parent="aZqe3vb6Hepgzw5Yev4Q-2" vertex="1">
          <mxGeometry x="1035" y="130" width="10" height="10" as="geometry" />
        </mxCell>
        <mxCell id="I6aaFoLGxXdzeBipke8z-116" value="" style="endArrow=none;html=1;rounded=0;labelBackgroundColor=default;strokeColor=default;align=center;verticalAlign=middle;fontFamily=Helvetica;fontSize=11;fontColor=default;shape=connector;" parent="aZqe3vb6Hepgzw5Yev4Q-2" edge="1">
          <mxGeometry width="50" height="50" relative="1" as="geometry">
            <mxPoint x="935" y="125" as="sourcePoint" />
            <mxPoint x="945" y="115" as="targetPoint" />
          </mxGeometry>
        </mxCell>
        <mxCell id="I6aaFoLGxXdzeBipke8z-117" value="4" style="text;html=1;strokeColor=none;fillColor=none;align=center;verticalAlign=middle;whiteSpace=wrap;rounded=0;fontSize=11;fontFamily=Helvetica;fontColor=default;" parent="aZqe3vb6Hepgzw5Yev4Q-2" vertex="1">
          <mxGeometry x="935" y="130" width="10" height="10" as="geometry" />
        </mxCell>
        <mxCell id="I6aaFoLGxXdzeBipke8z-118" value="" style="endArrow=none;html=1;rounded=0;labelBackgroundColor=default;strokeColor=default;align=center;verticalAlign=middle;fontFamily=Helvetica;fontSize=11;fontColor=default;shape=connector;" parent="aZqe3vb6Hepgzw5Yev4Q-2" edge="1">
          <mxGeometry width="50" height="50" relative="1" as="geometry">
            <mxPoint x="690" y="225" as="sourcePoint" />
            <mxPoint x="700" y="215" as="targetPoint" />
          </mxGeometry>
        </mxCell>
        <mxCell id="I6aaFoLGxXdzeBipke8z-119" value="4" style="text;html=1;strokeColor=none;fillColor=none;align=center;verticalAlign=middle;whiteSpace=wrap;rounded=0;fontSize=11;fontFamily=Helvetica;fontColor=default;" parent="aZqe3vb6Hepgzw5Yev4Q-2" vertex="1">
          <mxGeometry x="690" y="230" width="10" height="10" as="geometry" />
        </mxCell>
        <mxCell id="I6aaFoLGxXdzeBipke8z-120" value="" style="endArrow=none;html=1;rounded=0;labelBackgroundColor=default;strokeColor=default;align=center;verticalAlign=middle;fontFamily=Helvetica;fontSize=11;fontColor=default;shape=connector;" parent="aZqe3vb6Hepgzw5Yev4Q-2" edge="1">
          <mxGeometry width="50" height="50" relative="1" as="geometry">
            <mxPoint x="795" y="45" as="sourcePoint" />
            <mxPoint x="805" y="35" as="targetPoint" />
          </mxGeometry>
        </mxCell>
        <mxCell id="I6aaFoLGxXdzeBipke8z-121" value="4" style="text;html=1;strokeColor=none;fillColor=none;align=center;verticalAlign=middle;whiteSpace=wrap;rounded=0;fontSize=11;fontFamily=Helvetica;fontColor=default;" parent="aZqe3vb6Hepgzw5Yev4Q-2" vertex="1">
          <mxGeometry x="795" y="50" width="10" height="10" as="geometry" />
        </mxCell>
        <mxCell id="I6aaFoLGxXdzeBipke8z-122" value="" style="endArrow=none;html=1;rounded=0;labelBackgroundColor=default;strokeColor=default;align=center;verticalAlign=middle;fontFamily=Helvetica;fontSize=11;fontColor=default;shape=connector;" parent="aZqe3vb6Hepgzw5Yev4Q-2" edge="1">
          <mxGeometry width="50" height="50" relative="1" as="geometry">
            <mxPoint x="795" y="205" as="sourcePoint" />
            <mxPoint x="805" y="195" as="targetPoint" />
          </mxGeometry>
        </mxCell>
        <mxCell id="I6aaFoLGxXdzeBipke8z-123" value="4" style="text;html=1;strokeColor=none;fillColor=none;align=center;verticalAlign=middle;whiteSpace=wrap;rounded=0;fontSize=11;fontFamily=Helvetica;fontColor=default;" parent="aZqe3vb6Hepgzw5Yev4Q-2" vertex="1">
          <mxGeometry x="795" y="210" width="10" height="10" as="geometry" />
        </mxCell>
        <mxCell id="I6aaFoLGxXdzeBipke8z-173" value="4&#39;b0000" style="text;html=1;strokeColor=none;fillColor=none;align=center;verticalAlign=middle;whiteSpace=wrap;rounded=0;fontSize=11;fontFamily=Helvetica;fontColor=default;" parent="aZqe3vb6Hepgzw5Yev4Q-2" vertex="1">
          <mxGeometry x="620" y="170" width="50" height="20" as="geometry" />
        </mxCell>
        <mxCell id="I6aaFoLGxXdzeBipke8z-174" value="4&#39;b0000" style="text;html=1;strokeColor=none;fillColor=none;align=center;verticalAlign=middle;whiteSpace=wrap;rounded=0;fontSize=11;fontFamily=Helvetica;fontColor=default;" parent="aZqe3vb6Hepgzw5Yev4Q-2" vertex="1">
          <mxGeometry x="620" y="210" width="50" height="20" as="geometry" />
        </mxCell>
        <mxCell id="I6aaFoLGxXdzeBipke8z-179" style="edgeStyle=orthogonalEdgeStyle;shape=connector;rounded=0;orthogonalLoop=1;jettySize=auto;html=1;exitX=0.5;exitY=1;exitDx=0;exitDy=0;labelBackgroundColor=default;strokeColor=default;align=center;verticalAlign=middle;fontFamily=Helvetica;fontSize=11;fontColor=default;endArrow=none;endFill=0;" parent="aZqe3vb6Hepgzw5Yev4Q-2" source="I6aaFoLGxXdzeBipke8z-175" edge="1">
          <mxGeometry relative="1" as="geometry">
            <mxPoint x="510.20000000000005" y="160" as="targetPoint" />
          </mxGeometry>
        </mxCell>
        <mxCell id="I6aaFoLGxXdzeBipke8z-194" style="edgeStyle=orthogonalEdgeStyle;shape=connector;rounded=0;orthogonalLoop=1;jettySize=auto;html=1;exitX=1;exitY=0.5;exitDx=0;exitDy=0;labelBackgroundColor=default;strokeColor=default;align=center;verticalAlign=middle;fontFamily=Helvetica;fontSize=11;fontColor=default;endArrow=none;endFill=0;" parent="aZqe3vb6Hepgzw5Yev4Q-2" source="I6aaFoLGxXdzeBipke8z-175" edge="1">
          <mxGeometry relative="1" as="geometry">
            <mxPoint x="670" y="60.00000000000023" as="targetPoint" />
          </mxGeometry>
        </mxCell>
        <mxCell id="I6aaFoLGxXdzeBipke8z-175" value="Mux" style="whiteSpace=wrap;html=1;aspect=fixed;fontFamily=Helvetica;fontSize=11;fontColor=default;" parent="aZqe3vb6Hepgzw5Yev4Q-2" vertex="1">
          <mxGeometry x="470" y="40" width="80" height="80" as="geometry" />
        </mxCell>
        <mxCell id="I6aaFoLGxXdzeBipke8z-181" style="edgeStyle=orthogonalEdgeStyle;shape=connector;rounded=0;orthogonalLoop=1;jettySize=auto;html=1;exitX=0.5;exitY=1;exitDx=0;exitDy=0;labelBackgroundColor=default;strokeColor=default;align=center;verticalAlign=middle;fontFamily=Helvetica;fontSize=11;fontColor=default;endArrow=none;endFill=0;" parent="aZqe3vb6Hepgzw5Yev4Q-2" source="I6aaFoLGxXdzeBipke8z-176" edge="1">
          <mxGeometry relative="1" as="geometry">
            <mxPoint x="390.20000000000005" y="200" as="targetPoint" />
          </mxGeometry>
        </mxCell>
        <mxCell id="I6aaFoLGxXdzeBipke8z-195" style="edgeStyle=orthogonalEdgeStyle;shape=connector;rounded=0;orthogonalLoop=1;jettySize=auto;html=1;exitX=0;exitY=0.25;exitDx=0;exitDy=0;entryX=1;entryY=0.5;entryDx=0;entryDy=0;labelBackgroundColor=default;strokeColor=default;align=center;verticalAlign=middle;fontFamily=Helvetica;fontSize=11;fontColor=default;endArrow=none;endFill=0;" parent="aZqe3vb6Hepgzw5Yev4Q-2" source="I6aaFoLGxXdzeBipke8z-176" edge="1">
          <mxGeometry relative="1" as="geometry">
            <mxPoint x="310" y="100" as="targetPoint" />
          </mxGeometry>
        </mxCell>
        <mxCell id="I6aaFoLGxXdzeBipke8z-203" style="edgeStyle=orthogonalEdgeStyle;shape=connector;rounded=0;orthogonalLoop=1;jettySize=auto;html=1;exitX=0;exitY=0.75;exitDx=0;exitDy=0;labelBackgroundColor=default;strokeColor=default;align=center;verticalAlign=middle;fontFamily=Helvetica;fontSize=11;fontColor=default;endArrow=none;endFill=0;" parent="aZqe3vb6Hepgzw5Yev4Q-2" source="I6aaFoLGxXdzeBipke8z-176" edge="1">
          <mxGeometry relative="1" as="geometry">
            <mxPoint x="310" y="139.8965517241379" as="targetPoint" />
          </mxGeometry>
        </mxCell>
        <mxCell id="I6aaFoLGxXdzeBipke8z-176" value="Mux" style="whiteSpace=wrap;html=1;aspect=fixed;fontFamily=Helvetica;fontSize=11;fontColor=default;" parent="aZqe3vb6Hepgzw5Yev4Q-2" vertex="1">
          <mxGeometry x="350" y="80" width="80" height="80" as="geometry" />
        </mxCell>
        <mxCell id="I6aaFoLGxXdzeBipke8z-180" value="isHit[14]" style="text;html=1;strokeColor=none;fillColor=none;align=center;verticalAlign=middle;whiteSpace=wrap;rounded=0;fontSize=11;fontFamily=Helvetica;fontColor=default;" parent="aZqe3vb6Hepgzw5Yev4Q-2" vertex="1">
          <mxGeometry x="370" y="200" width="40" height="20" as="geometry" />
        </mxCell>
        <mxCell id="I6aaFoLGxXdzeBipke8z-183" value="4&#39;b0000" style="text;html=1;strokeColor=none;fillColor=none;align=center;verticalAlign=middle;whiteSpace=wrap;rounded=0;fontSize=11;fontFamily=Helvetica;fontColor=default;" parent="aZqe3vb6Hepgzw5Yev4Q-2" vertex="1">
          <mxGeometry x="620" y="10" width="50" height="20" as="geometry" />
        </mxCell>
        <mxCell id="I6aaFoLGxXdzeBipke8z-184" value="isHit[15]" style="text;html=1;strokeColor=none;fillColor=none;align=center;verticalAlign=middle;whiteSpace=wrap;rounded=0;fontSize=11;fontFamily=Helvetica;fontColor=default;" parent="aZqe3vb6Hepgzw5Yev4Q-2" vertex="1">
          <mxGeometry x="490" y="160" width="40" height="20" as="geometry" />
        </mxCell>
        <mxCell id="I6aaFoLGxXdzeBipke8z-202" style="edgeStyle=orthogonalEdgeStyle;shape=connector;rounded=0;orthogonalLoop=1;jettySize=auto;html=1;exitX=0;exitY=0.5;exitDx=0;exitDy=0;entryX=1;entryY=0.5;entryDx=0;entryDy=0;labelBackgroundColor=default;strokeColor=default;align=center;verticalAlign=middle;fontFamily=Helvetica;fontSize=11;fontColor=default;endArrow=none;endFill=0;" parent="aZqe3vb6Hepgzw5Yev4Q-2" source="I6aaFoLGxXdzeBipke8z-185" edge="1">
          <mxGeometry relative="1" as="geometry">
            <mxPoint x="430" y="60" as="targetPoint" />
          </mxGeometry>
        </mxCell>
        <mxCell id="I6aaFoLGxXdzeBipke8z-185" value="1" style="text;html=1;strokeColor=none;fillColor=none;align=center;verticalAlign=middle;whiteSpace=wrap;rounded=0;fontSize=11;fontFamily=Helvetica;fontColor=default;" parent="aZqe3vb6Hepgzw5Yev4Q-2" vertex="1">
          <mxGeometry x="470" y="50" width="20" height="20" as="geometry" />
        </mxCell>
        <mxCell id="I6aaFoLGxXdzeBipke8z-186" value="0" style="text;html=1;strokeColor=none;fillColor=none;align=center;verticalAlign=middle;whiteSpace=wrap;rounded=0;fontSize=11;fontFamily=Helvetica;fontColor=default;" parent="aZqe3vb6Hepgzw5Yev4Q-2" vertex="1">
          <mxGeometry x="470" y="90" width="20" height="20" as="geometry" />
        </mxCell>
        <mxCell id="I6aaFoLGxXdzeBipke8z-201" style="edgeStyle=orthogonalEdgeStyle;shape=connector;rounded=0;orthogonalLoop=1;jettySize=auto;html=1;exitX=1;exitY=0.25;exitDx=0;exitDy=0;entryX=0;entryY=0.5;entryDx=0;entryDy=0;labelBackgroundColor=default;strokeColor=default;align=center;verticalAlign=middle;fontFamily=Helvetica;fontSize=11;fontColor=default;endArrow=none;endFill=0;" parent="aZqe3vb6Hepgzw5Yev4Q-2" source="I6aaFoLGxXdzeBipke8z-176" target="I6aaFoLGxXdzeBipke8z-186" edge="1">
          <mxGeometry relative="1" as="geometry" />
        </mxCell>
        <mxCell id="I6aaFoLGxXdzeBipke8z-187" value="sel" style="text;html=1;strokeColor=none;fillColor=none;align=center;verticalAlign=middle;whiteSpace=wrap;rounded=0;fontSize=11;fontFamily=Helvetica;fontColor=default;" parent="aZqe3vb6Hepgzw5Yev4Q-2" vertex="1">
          <mxGeometry x="500" y="100" width="20" height="20" as="geometry" />
        </mxCell>
        <mxCell id="I6aaFoLGxXdzeBipke8z-204" value="1" style="text;html=1;strokeColor=none;fillColor=none;align=center;verticalAlign=middle;whiteSpace=wrap;rounded=0;fontSize=11;fontFamily=Helvetica;fontColor=default;" parent="aZqe3vb6Hepgzw5Yev4Q-2" vertex="1">
          <mxGeometry x="350" y="90" width="20" height="20" as="geometry" />
        </mxCell>
        <mxCell id="I6aaFoLGxXdzeBipke8z-205" value="sel" style="text;html=1;strokeColor=none;fillColor=none;align=center;verticalAlign=middle;whiteSpace=wrap;rounded=0;fontSize=11;fontFamily=Helvetica;fontColor=default;" parent="aZqe3vb6Hepgzw5Yev4Q-2" vertex="1">
          <mxGeometry x="380" y="140" width="20" height="20" as="geometry" />
        </mxCell>
        <mxCell id="I6aaFoLGxXdzeBipke8z-206" value="0" style="text;html=1;strokeColor=none;fillColor=none;align=center;verticalAlign=middle;whiteSpace=wrap;rounded=0;fontSize=11;fontFamily=Helvetica;fontColor=default;" parent="aZqe3vb6Hepgzw5Yev4Q-2" vertex="1">
          <mxGeometry x="350" y="130" width="20" height="20" as="geometry" />
        </mxCell>
        <mxCell id="I6aaFoLGxXdzeBipke8z-208" style="edgeStyle=orthogonalEdgeStyle;shape=connector;rounded=0;orthogonalLoop=1;jettySize=auto;html=1;exitX=0.5;exitY=1;exitDx=0;exitDy=0;labelBackgroundColor=default;strokeColor=default;align=center;verticalAlign=middle;fontFamily=Helvetica;fontSize=11;fontColor=default;endArrow=none;endFill=0;" parent="aZqe3vb6Hepgzw5Yev4Q-2" source="I6aaFoLGxXdzeBipke8z-209" edge="1">
          <mxGeometry relative="1" as="geometry">
            <mxPoint x="230.20000000000005" y="280" as="targetPoint" />
          </mxGeometry>
        </mxCell>
        <mxCell id="I6aaFoLGxXdzeBipke8z-225" style="edgeStyle=orthogonalEdgeStyle;shape=connector;rounded=0;orthogonalLoop=1;jettySize=auto;html=1;exitX=1;exitY=0.5;exitDx=0;exitDy=0;labelBackgroundColor=default;strokeColor=default;align=center;verticalAlign=middle;fontFamily=Helvetica;fontSize=11;fontColor=default;endArrow=none;endFill=0;" parent="aZqe3vb6Hepgzw5Yev4Q-2" source="I6aaFoLGxXdzeBipke8z-209" edge="1">
          <mxGeometry relative="1" as="geometry">
            <mxPoint x="310" y="199.89655172413813" as="targetPoint" />
          </mxGeometry>
        </mxCell>
        <mxCell id="I6aaFoLGxXdzeBipke8z-209" value="Mux" style="whiteSpace=wrap;html=1;aspect=fixed;fontFamily=Helvetica;fontSize=11;fontColor=default;" parent="aZqe3vb6Hepgzw5Yev4Q-2" vertex="1">
          <mxGeometry x="190" y="160" width="80" height="80" as="geometry" />
        </mxCell>
        <mxCell id="I6aaFoLGxXdzeBipke8z-210" style="edgeStyle=orthogonalEdgeStyle;shape=connector;rounded=0;orthogonalLoop=1;jettySize=auto;html=1;exitX=0.5;exitY=1;exitDx=0;exitDy=0;labelBackgroundColor=default;strokeColor=default;align=center;verticalAlign=middle;fontFamily=Helvetica;fontSize=11;fontColor=default;endArrow=none;endFill=0;" parent="aZqe3vb6Hepgzw5Yev4Q-2" source="I6aaFoLGxXdzeBipke8z-214" edge="1">
          <mxGeometry relative="1" as="geometry">
            <mxPoint x="110.20000000000005" y="320" as="targetPoint" />
          </mxGeometry>
        </mxCell>
        <mxCell id="I6aaFoLGxXdzeBipke8z-213" style="edgeStyle=orthogonalEdgeStyle;shape=connector;rounded=0;orthogonalLoop=1;jettySize=auto;html=1;exitX=0;exitY=0.75;exitDx=0;exitDy=0;labelBackgroundColor=default;strokeColor=default;align=center;verticalAlign=middle;fontFamily=Helvetica;fontSize=11;fontColor=default;endArrow=none;endFill=0;" parent="aZqe3vb6Hepgzw5Yev4Q-2" source="I6aaFoLGxXdzeBipke8z-214" edge="1">
          <mxGeometry relative="1" as="geometry">
            <mxPoint x="30" y="259.8965517241379" as="targetPoint" />
          </mxGeometry>
        </mxCell>
        <mxCell id="I6aaFoLGxXdzeBipke8z-214" value="Mux" style="whiteSpace=wrap;html=1;aspect=fixed;fontFamily=Helvetica;fontSize=11;fontColor=default;" parent="aZqe3vb6Hepgzw5Yev4Q-2" vertex="1">
          <mxGeometry x="70" y="200" width="80" height="80" as="geometry" />
        </mxCell>
        <mxCell id="I6aaFoLGxXdzeBipke8z-215" value="isHit[0]" style="text;html=1;strokeColor=none;fillColor=none;align=center;verticalAlign=middle;whiteSpace=wrap;rounded=0;fontSize=11;fontFamily=Helvetica;fontColor=default;" parent="aZqe3vb6Hepgzw5Yev4Q-2" vertex="1">
          <mxGeometry x="90" y="320" width="40" height="20" as="geometry" />
        </mxCell>
        <mxCell id="I6aaFoLGxXdzeBipke8z-216" value="isHit[1]" style="text;html=1;strokeColor=none;fillColor=none;align=center;verticalAlign=middle;whiteSpace=wrap;rounded=0;fontSize=11;fontFamily=Helvetica;fontColor=default;" parent="aZqe3vb6Hepgzw5Yev4Q-2" vertex="1">
          <mxGeometry x="210" y="280" width="40" height="20" as="geometry" />
        </mxCell>
        <mxCell id="I6aaFoLGxXdzeBipke8z-217" style="edgeStyle=orthogonalEdgeStyle;shape=connector;rounded=0;orthogonalLoop=1;jettySize=auto;html=1;exitX=0;exitY=0.5;exitDx=0;exitDy=0;entryX=1;entryY=0.5;entryDx=0;entryDy=0;labelBackgroundColor=default;strokeColor=default;align=center;verticalAlign=middle;fontFamily=Helvetica;fontSize=11;fontColor=default;endArrow=none;endFill=0;" parent="aZqe3vb6Hepgzw5Yev4Q-2" source="I6aaFoLGxXdzeBipke8z-218" edge="1">
          <mxGeometry relative="1" as="geometry">
            <mxPoint x="150" y="180" as="targetPoint" />
          </mxGeometry>
        </mxCell>
        <mxCell id="I6aaFoLGxXdzeBipke8z-218" value="1" style="text;html=1;strokeColor=none;fillColor=none;align=center;verticalAlign=middle;whiteSpace=wrap;rounded=0;fontSize=11;fontFamily=Helvetica;fontColor=default;" parent="aZqe3vb6Hepgzw5Yev4Q-2" vertex="1">
          <mxGeometry x="190" y="170" width="20" height="20" as="geometry" />
        </mxCell>
        <mxCell id="I6aaFoLGxXdzeBipke8z-219" value="0" style="text;html=1;strokeColor=none;fillColor=none;align=center;verticalAlign=middle;whiteSpace=wrap;rounded=0;fontSize=11;fontFamily=Helvetica;fontColor=default;" parent="aZqe3vb6Hepgzw5Yev4Q-2" vertex="1">
          <mxGeometry x="190" y="210" width="20" height="20" as="geometry" />
        </mxCell>
        <mxCell id="I6aaFoLGxXdzeBipke8z-212" style="edgeStyle=orthogonalEdgeStyle;shape=connector;rounded=0;orthogonalLoop=1;jettySize=auto;html=1;exitX=1;exitY=0.25;exitDx=0;exitDy=0;entryX=0;entryY=0.5;entryDx=0;entryDy=0;labelBackgroundColor=default;strokeColor=default;align=center;verticalAlign=middle;fontFamily=Helvetica;fontSize=11;fontColor=default;endArrow=none;endFill=0;" parent="aZqe3vb6Hepgzw5Yev4Q-2" source="I6aaFoLGxXdzeBipke8z-214" target="I6aaFoLGxXdzeBipke8z-219" edge="1">
          <mxGeometry relative="1" as="geometry" />
        </mxCell>
        <mxCell id="I6aaFoLGxXdzeBipke8z-220" value="sel" style="text;html=1;strokeColor=none;fillColor=none;align=center;verticalAlign=middle;whiteSpace=wrap;rounded=0;fontSize=11;fontFamily=Helvetica;fontColor=default;" parent="aZqe3vb6Hepgzw5Yev4Q-2" vertex="1">
          <mxGeometry x="220" y="220" width="20" height="20" as="geometry" />
        </mxCell>
        <mxCell id="I6aaFoLGxXdzeBipke8z-221" value="4&#39;d0" style="text;html=1;strokeColor=none;fillColor=none;align=center;verticalAlign=middle;whiteSpace=wrap;rounded=0;fontSize=11;fontFamily=Helvetica;fontColor=default;" parent="aZqe3vb6Hepgzw5Yev4Q-2" vertex="1">
          <mxGeometry y="210" width="30" height="20" as="geometry" />
        </mxCell>
        <mxCell id="I6aaFoLGxXdzeBipke8z-211" style="edgeStyle=orthogonalEdgeStyle;shape=connector;rounded=0;orthogonalLoop=1;jettySize=auto;html=1;exitX=0;exitY=0.25;exitDx=0;exitDy=0;entryX=1;entryY=0.5;entryDx=0;entryDy=0;labelBackgroundColor=default;strokeColor=default;align=center;verticalAlign=middle;fontFamily=Helvetica;fontSize=11;fontColor=default;endArrow=none;endFill=0;" parent="aZqe3vb6Hepgzw5Yev4Q-2" source="I6aaFoLGxXdzeBipke8z-214" target="I6aaFoLGxXdzeBipke8z-221" edge="1">
          <mxGeometry relative="1" as="geometry" />
        </mxCell>
        <mxCell id="I6aaFoLGxXdzeBipke8z-222" value="1" style="text;html=1;strokeColor=none;fillColor=none;align=center;verticalAlign=middle;whiteSpace=wrap;rounded=0;fontSize=11;fontFamily=Helvetica;fontColor=default;" parent="aZqe3vb6Hepgzw5Yev4Q-2" vertex="1">
          <mxGeometry x="70" y="210" width="20" height="20" as="geometry" />
        </mxCell>
        <mxCell id="I6aaFoLGxXdzeBipke8z-223" value="sel" style="text;html=1;strokeColor=none;fillColor=none;align=center;verticalAlign=middle;whiteSpace=wrap;rounded=0;fontSize=11;fontFamily=Helvetica;fontColor=default;" parent="aZqe3vb6Hepgzw5Yev4Q-2" vertex="1">
          <mxGeometry x="100" y="260" width="20" height="20" as="geometry" />
        </mxCell>
        <mxCell id="I6aaFoLGxXdzeBipke8z-224" value="0" style="text;html=1;strokeColor=none;fillColor=none;align=center;verticalAlign=middle;whiteSpace=wrap;rounded=0;fontSize=11;fontFamily=Helvetica;fontColor=default;" parent="aZqe3vb6Hepgzw5Yev4Q-2" vertex="1">
          <mxGeometry x="70" y="250" width="20" height="20" as="geometry" />
        </mxCell>
        <mxCell id="I6aaFoLGxXdzeBipke8z-226" value="" style="verticalLabelPosition=bottom;shadow=0;dashed=0;align=center;html=1;verticalAlign=top;shape=mxgraph.electrical.logic_gates.inverting_contact;fontFamily=Helvetica;fontSize=11;fontColor=default;fillColor=#000000;" parent="aZqe3vb6Hepgzw5Yev4Q-2" vertex="1">
          <mxGeometry x="305" y="145" width="10" height="10" as="geometry" />
        </mxCell>
        <mxCell id="I6aaFoLGxXdzeBipke8z-227" value="" style="verticalLabelPosition=bottom;shadow=0;dashed=0;align=center;html=1;verticalAlign=top;shape=mxgraph.electrical.logic_gates.inverting_contact;fontFamily=Helvetica;fontSize=11;fontColor=default;fillColor=#000000;" parent="aZqe3vb6Hepgzw5Yev4Q-2" vertex="1">
          <mxGeometry x="305" y="165" width="10" height="10" as="geometry" />
        </mxCell>
        <mxCell id="I6aaFoLGxXdzeBipke8z-228" value="" style="verticalLabelPosition=bottom;shadow=0;dashed=0;align=center;html=1;verticalAlign=top;shape=mxgraph.electrical.logic_gates.inverting_contact;fontFamily=Helvetica;fontSize=11;fontColor=default;fillColor=#000000;" parent="aZqe3vb6Hepgzw5Yev4Q-2" vertex="1">
          <mxGeometry x="305" y="185" width="10" height="10" as="geometry" />
        </mxCell>
        <mxCell id="I6aaFoLGxXdzeBipke8z-229" value="4&#39;d0" style="text;html=1;strokeColor=none;fillColor=none;align=center;verticalAlign=middle;whiteSpace=wrap;rounded=0;fontSize=11;fontFamily=Helvetica;fontColor=default;" parent="aZqe3vb6Hepgzw5Yev4Q-2" vertex="1">
          <mxGeometry y="250" width="30" height="20" as="geometry" />
        </mxCell>
        <mxCell id="I6aaFoLGxXdzeBipke8z-230" value="4&#39;d1" style="text;html=1;strokeColor=none;fillColor=none;align=center;verticalAlign=middle;whiteSpace=wrap;rounded=0;fontSize=11;fontFamily=Helvetica;fontColor=default;" parent="aZqe3vb6Hepgzw5Yev4Q-2" vertex="1">
          <mxGeometry x="120" y="170" width="30" height="20" as="geometry" />
        </mxCell>
        <mxCell id="I6aaFoLGxXdzeBipke8z-231" value="4&#39;d14" style="text;html=1;strokeColor=none;fillColor=none;align=center;verticalAlign=middle;whiteSpace=wrap;rounded=0;fontSize=11;fontFamily=Helvetica;fontColor=default;" parent="aZqe3vb6Hepgzw5Yev4Q-2" vertex="1">
          <mxGeometry x="279" y="90" width="30" height="20" as="geometry" />
        </mxCell>
        <mxCell id="I6aaFoLGxXdzeBipke8z-232" value="4&#39;d15" style="text;html=1;strokeColor=none;fillColor=none;align=center;verticalAlign=middle;whiteSpace=wrap;rounded=0;fontSize=11;fontFamily=Helvetica;fontColor=default;" parent="aZqe3vb6Hepgzw5Yev4Q-2" vertex="1">
          <mxGeometry x="400" y="50" width="30" height="20" as="geometry" />
        </mxCell>
        <mxCell id="I6aaFoLGxXdzeBipke8z-234" value="" style="endArrow=none;html=1;rounded=0;labelBackgroundColor=default;strokeColor=default;align=center;verticalAlign=middle;fontFamily=Helvetica;fontSize=11;fontColor=default;shape=connector;" parent="aZqe3vb6Hepgzw5Yev4Q-2" edge="1">
          <mxGeometry width="50" height="50" relative="1" as="geometry">
            <mxPoint x="560" y="85" as="sourcePoint" />
            <mxPoint x="570" y="75" as="targetPoint" />
          </mxGeometry>
        </mxCell>
        <mxCell id="I6aaFoLGxXdzeBipke8z-235" value="4" style="text;html=1;strokeColor=none;fillColor=none;align=center;verticalAlign=middle;whiteSpace=wrap;rounded=0;fontSize=11;fontFamily=Helvetica;fontColor=default;" parent="aZqe3vb6Hepgzw5Yev4Q-2" vertex="1">
          <mxGeometry x="560" y="90" width="10" height="10" as="geometry" />
        </mxCell>
        <mxCell id="I6aaFoLGxXdzeBipke8z-236" value="" style="endArrow=none;html=1;rounded=0;labelBackgroundColor=default;strokeColor=default;align=center;verticalAlign=middle;fontFamily=Helvetica;fontSize=11;fontColor=default;shape=connector;" parent="aZqe3vb6Hepgzw5Yev4Q-2" edge="1">
          <mxGeometry width="50" height="50" relative="1" as="geometry">
            <mxPoint x="450" y="65" as="sourcePoint" />
            <mxPoint x="460" y="55" as="targetPoint" />
          </mxGeometry>
        </mxCell>
        <mxCell id="I6aaFoLGxXdzeBipke8z-237" value="4" style="text;html=1;strokeColor=none;fillColor=none;align=center;verticalAlign=middle;whiteSpace=wrap;rounded=0;fontSize=11;fontFamily=Helvetica;fontColor=default;" parent="aZqe3vb6Hepgzw5Yev4Q-2" vertex="1">
          <mxGeometry x="450" y="70" width="10" height="10" as="geometry" />
        </mxCell>
        <mxCell id="I6aaFoLGxXdzeBipke8z-238" value="" style="endArrow=none;html=1;rounded=0;labelBackgroundColor=default;strokeColor=default;align=center;verticalAlign=middle;fontFamily=Helvetica;fontSize=11;fontColor=default;shape=connector;" parent="aZqe3vb6Hepgzw5Yev4Q-2" edge="1">
          <mxGeometry width="50" height="50" relative="1" as="geometry">
            <mxPoint x="450" y="105" as="sourcePoint" />
            <mxPoint x="460" y="95" as="targetPoint" />
          </mxGeometry>
        </mxCell>
        <mxCell id="I6aaFoLGxXdzeBipke8z-239" value="4" style="text;html=1;strokeColor=none;fillColor=none;align=center;verticalAlign=middle;whiteSpace=wrap;rounded=0;fontSize=11;fontFamily=Helvetica;fontColor=default;" parent="aZqe3vb6Hepgzw5Yev4Q-2" vertex="1">
          <mxGeometry x="450" y="110" width="10" height="10" as="geometry" />
        </mxCell>
        <mxCell id="I6aaFoLGxXdzeBipke8z-240" value="" style="endArrow=none;html=1;rounded=0;labelBackgroundColor=default;strokeColor=default;align=center;verticalAlign=middle;fontFamily=Helvetica;fontSize=11;fontColor=default;shape=connector;" parent="aZqe3vb6Hepgzw5Yev4Q-2" edge="1">
          <mxGeometry width="50" height="50" relative="1" as="geometry">
            <mxPoint x="330" y="145" as="sourcePoint" />
            <mxPoint x="340" y="135" as="targetPoint" />
          </mxGeometry>
        </mxCell>
        <mxCell id="I6aaFoLGxXdzeBipke8z-241" value="4" style="text;html=1;strokeColor=none;fillColor=none;align=center;verticalAlign=middle;whiteSpace=wrap;rounded=0;fontSize=11;fontFamily=Helvetica;fontColor=default;" parent="aZqe3vb6Hepgzw5Yev4Q-2" vertex="1">
          <mxGeometry x="330" y="150" width="10" height="10" as="geometry" />
        </mxCell>
        <mxCell id="I6aaFoLGxXdzeBipke8z-242" value="4" style="text;html=1;strokeColor=none;fillColor=none;align=center;verticalAlign=middle;whiteSpace=wrap;rounded=0;fontSize=11;fontFamily=Helvetica;fontColor=default;" parent="aZqe3vb6Hepgzw5Yev4Q-2" vertex="1">
          <mxGeometry x="330" y="110" width="10" height="10" as="geometry" />
        </mxCell>
        <mxCell id="I6aaFoLGxXdzeBipke8z-243" value="" style="endArrow=none;html=1;rounded=0;labelBackgroundColor=default;strokeColor=default;align=center;verticalAlign=middle;fontFamily=Helvetica;fontSize=11;fontColor=default;shape=connector;" parent="aZqe3vb6Hepgzw5Yev4Q-2" edge="1">
          <mxGeometry width="50" height="50" relative="1" as="geometry">
            <mxPoint x="330" y="105" as="sourcePoint" />
            <mxPoint x="340" y="95" as="targetPoint" />
          </mxGeometry>
        </mxCell>
        <mxCell id="I6aaFoLGxXdzeBipke8z-244" value="" style="endArrow=none;html=1;rounded=0;labelBackgroundColor=default;strokeColor=default;align=center;verticalAlign=middle;fontFamily=Helvetica;fontSize=11;fontColor=default;shape=connector;" parent="aZqe3vb6Hepgzw5Yev4Q-2" edge="1">
          <mxGeometry width="50" height="50" relative="1" as="geometry">
            <mxPoint x="170" y="225" as="sourcePoint" />
            <mxPoint x="180" y="215" as="targetPoint" />
          </mxGeometry>
        </mxCell>
        <mxCell id="I6aaFoLGxXdzeBipke8z-245" value="4" style="text;html=1;strokeColor=none;fillColor=none;align=center;verticalAlign=middle;whiteSpace=wrap;rounded=0;fontSize=11;fontFamily=Helvetica;fontColor=default;" parent="aZqe3vb6Hepgzw5Yev4Q-2" vertex="1">
          <mxGeometry x="170" y="230" width="10" height="10" as="geometry" />
        </mxCell>
        <mxCell id="I6aaFoLGxXdzeBipke8z-246" value="4" style="text;html=1;strokeColor=none;fillColor=none;align=center;verticalAlign=middle;whiteSpace=wrap;rounded=0;fontSize=11;fontFamily=Helvetica;fontColor=default;" parent="aZqe3vb6Hepgzw5Yev4Q-2" vertex="1">
          <mxGeometry x="170" y="190" width="10" height="10" as="geometry" />
        </mxCell>
        <mxCell id="I6aaFoLGxXdzeBipke8z-247" value="" style="endArrow=none;html=1;rounded=0;labelBackgroundColor=default;strokeColor=default;align=center;verticalAlign=middle;fontFamily=Helvetica;fontSize=11;fontColor=default;shape=connector;" parent="aZqe3vb6Hepgzw5Yev4Q-2" edge="1">
          <mxGeometry width="50" height="50" relative="1" as="geometry">
            <mxPoint x="170" y="185" as="sourcePoint" />
            <mxPoint x="180" y="175" as="targetPoint" />
          </mxGeometry>
        </mxCell>
        <mxCell id="I6aaFoLGxXdzeBipke8z-248" value="" style="endArrow=none;html=1;rounded=0;labelBackgroundColor=default;strokeColor=default;align=center;verticalAlign=middle;fontFamily=Helvetica;fontSize=11;fontColor=default;shape=connector;" parent="aZqe3vb6Hepgzw5Yev4Q-2" edge="1">
          <mxGeometry width="50" height="50" relative="1" as="geometry">
            <mxPoint x="50" y="265" as="sourcePoint" />
            <mxPoint x="60" y="255" as="targetPoint" />
          </mxGeometry>
        </mxCell>
        <mxCell id="I6aaFoLGxXdzeBipke8z-249" value="4" style="text;html=1;strokeColor=none;fillColor=none;align=center;verticalAlign=middle;whiteSpace=wrap;rounded=0;fontSize=11;fontFamily=Helvetica;fontColor=default;" parent="aZqe3vb6Hepgzw5Yev4Q-2" vertex="1">
          <mxGeometry x="50" y="270" width="10" height="10" as="geometry" />
        </mxCell>
        <mxCell id="I6aaFoLGxXdzeBipke8z-250" value="4" style="text;html=1;strokeColor=none;fillColor=none;align=center;verticalAlign=middle;whiteSpace=wrap;rounded=0;fontSize=11;fontFamily=Helvetica;fontColor=default;" parent="aZqe3vb6Hepgzw5Yev4Q-2" vertex="1">
          <mxGeometry x="50" y="230" width="10" height="10" as="geometry" />
        </mxCell>
        <mxCell id="I6aaFoLGxXdzeBipke8z-251" value="" style="endArrow=none;html=1;rounded=0;labelBackgroundColor=default;strokeColor=default;align=center;verticalAlign=middle;fontFamily=Helvetica;fontSize=11;fontColor=default;shape=connector;" parent="aZqe3vb6Hepgzw5Yev4Q-2" edge="1">
          <mxGeometry width="50" height="50" relative="1" as="geometry">
            <mxPoint x="50" y="225" as="sourcePoint" />
            <mxPoint x="60" y="215" as="targetPoint" />
          </mxGeometry>
        </mxCell>
      </root>
    </mxGraphModel>
  </diagram>
</mxfile>
